<svg width="295" height="362" viewBox="0 0 295 362" fill="none" xmlns="http://www.w3.org/2000/svg">
<path d="M250.322 235.499L250.755 235.942L255.651 230.943C255.765 230.827 255.83 230.666 255.83 230.501C255.83 230.337 255.765 230.176 255.651 230.06L240.962 215.067C240.847 214.95 240.691 214.884 240.529 214.884C240.368 214.884 240.21 214.95 240.096 215.067L235.2 220.065C234.961 220.309 234.961 220.705 235.2 220.948L249.888 235.942C250.002 236.058 250.16 236.124 250.322 236.124C250.483 236.124 250.64 236.058 250.755 235.942L250.322 235.499L250.755 235.057L236.498 220.507L240.529 216.392L254.352 230.501L249.888 235.057L250.322 235.499Z" fill="black" fill-opacity="0.05"/>
<path d="M196.463 290.468L196.896 290.911L206.689 280.916L206.255 280.474H205.643V280.475C205.643 280.727 205.793 280.956 206.022 281.052C206.249 281.148 206.512 281.095 206.689 280.917L240.962 245.935C241.076 245.819 241.141 245.657 241.141 245.493C241.141 245.329 241.076 245.168 240.962 245.052L226.274 230.058C226.159 229.942 226.002 229.876 225.84 229.876C225.679 229.876 225.521 229.942 225.407 230.058L196.029 260.042C195.916 260.16 195.851 260.32 195.851 260.485V290.468C195.851 290.721 196 290.949 196.229 291.046C196.457 291.142 196.72 291.088 196.896 290.911L196.463 290.468H197.075V260.743L225.84 231.384L239.664 245.493L205.822 280.033L206.255 280.475H206.867V280.474C206.867 280.221 206.718 279.993 206.489 279.897C206.26 279.8 205.997 279.853 205.822 280.031L196.029 290.026L196.463 290.468Z" fill="black" fill-opacity="0.05"/>
<path d="M196.464 310.457L196.031 310.015L196.029 310.016C195.916 310.133 195.851 310.293 195.851 310.458V320.453C195.851 320.705 196 320.934 196.229 321.03C196.457 321.126 196.72 321.072 196.896 320.895L206.689 310.9L206.255 310.458H205.643V310.459C205.643 310.712 205.793 310.94 206.022 311.037C206.249 311.133 206.512 311.079 206.689 310.902L255.651 260.927C255.765 260.811 255.83 260.65 255.83 260.485C255.83 260.321 255.765 260.16 255.651 260.044L250.755 255.047C250.641 254.93 250.483 254.863 250.322 254.863C250.161 254.863 250.003 254.93 249.89 255.047L196.031 310.016L196.464 310.458H197.076V310.457C197.076 310.205 196.927 309.976 196.698 309.88C196.469 309.783 196.206 309.836 196.031 310.015L196.464 310.457H195.852V310.458C195.852 310.71 196.001 310.939 196.23 311.035C196.458 311.132 196.721 311.078 196.896 310.9L250.322 256.372L254.353 260.486L205.822 310.017L206.255 310.459H206.867V310.458C206.867 310.206 206.718 309.977 206.489 309.881C206.26 309.785 205.997 309.837 205.822 310.016L197.075 318.945V310.458H196.463L196.896 310.9V310.899L196.464 310.457Z" fill="black" fill-opacity="0.05"/>
<path d="M196.463 60.5921L196.029 61.0344L215.615 81.0236C215.79 81.2023 216.053 81.2548 216.282 81.1586C216.511 81.0624 216.66 80.8337 216.66 80.5814V60.5921V40.6029V20.6136C216.66 20.3613 216.511 20.1326 216.282 20.0364C216.053 19.9402 215.79 19.9927 215.615 20.1714L196.029 40.1606C195.916 40.2781 195.851 40.438 195.851 40.6029V60.5921C195.851 60.757 195.916 60.917 196.029 61.0344L196.463 60.5921H197.075V40.8615L215.436 22.1216V40.6029V60.5921V79.0734L196.896 60.1499L196.463 60.5921Z" fill="black" fill-opacity="0.05"/>
<path d="M196.463 60.5921H197.075V40.6029C197.075 40.438 197.01 40.278 196.896 40.1606L177.311 20.1714C177.135 19.9927 176.872 19.9402 176.644 20.0364C176.415 20.1326 176.266 20.3613 176.266 20.6136V40.6029C176.266 40.7678 176.331 40.9277 176.444 41.0451L196.029 61.0344C196.204 61.213 196.468 61.2655 196.697 61.1693C196.925 61.0731 197.075 60.8445 197.075 60.5921H196.463L196.896 60.1499L177.49 40.3443V22.1216L195.851 40.8615V60.5921H196.463Z" fill="black" fill-opacity="0.05"/>
<path d="M20.1974 150.544L19.7641 150.102L0.17902 170.091C-0.0596732 170.336 -0.0596732 170.731 0.17902 170.976L19.7641 190.965C19.8779 191.081 20.0358 191.147 20.1974 191.147C20.359 191.147 20.5156 191.081 20.6307 190.965L40.2158 170.976C40.3296 170.858 40.3945 170.698 40.3945 170.534C40.3945 170.369 40.3296 170.209 40.2158 170.091L20.6307 150.102C20.5156 149.986 20.359 149.92 20.1974 149.92C20.0358 149.92 19.8779 149.986 19.7641 150.102L20.1974 150.544L19.7641 150.987L38.9158 170.534L20.1974 189.64L1.47775 170.534L20.6307 150.987L20.1974 150.544Z" fill="black" fill-opacity="0.05"/>
<path d="M78.9525 170.534H79.5645V150.544C79.5645 150.379 79.4997 150.219 79.3858 150.102C79.2708 149.986 79.1141 149.92 78.9525 149.92H20.1974C19.9501 149.92 19.7261 150.072 19.6319 150.306C19.5364 150.538 19.589 150.807 19.7641 150.987L39.3491 170.976C39.4629 171.092 39.6209 171.158 39.7824 171.158H78.9525C79.1141 171.158 79.2708 171.092 79.3858 170.976C79.4997 170.858 79.5645 170.698 79.5645 170.534H78.9525V169.909H40.0358L21.6748 151.169H78.3405V170.534H78.9525Z" fill="black" fill-opacity="0.05"/>
<path d="M78.9525 180.528H79.5645V170.534C79.5645 170.369 79.4997 170.209 79.3858 170.091C79.2708 169.975 79.1141 169.909 78.9525 169.909H39.7824C39.6209 169.909 39.4629 169.975 39.3491 170.091L19.7641 190.081C19.589 190.259 19.5364 190.529 19.6319 190.761C19.7261 190.995 19.9501 191.147 20.1974 191.147H39.7824C39.944 191.147 40.1007 191.081 40.2158 190.965L49.8283 181.153H78.9525C79.1141 181.153 79.2708 181.087 79.3858 180.97C79.4997 180.853 79.5645 180.693 79.5645 180.528H78.9525V179.904H49.5749C49.4134 179.904 49.2555 179.97 49.1416 180.086L39.5278 189.898H21.6748L40.0358 171.158H78.3405V180.528H78.9525Z" fill="black" fill-opacity="0.05"/>
<path d="M49.5749 180.528L49.1416 180.085L39.3491 190.08L29.5566 200.075C29.3179 200.32 29.3179 200.714 29.5566 200.959L49.1416 220.948C49.2555 221.065 49.4134 221.131 49.5749 221.131C49.7365 221.131 49.8932 221.065 50.0083 220.948L69.5933 200.959C69.7072 200.842 69.772 200.682 69.772 200.517C69.772 200.352 69.7072 200.192 69.5933 200.075L50.0083 180.085C49.8932 179.969 49.7365 179.903 49.5749 179.903C49.4134 179.903 49.2555 179.969 49.1416 180.085L49.5749 180.528L49.1416 180.97L68.2934 200.517L49.5749 219.623L30.8553 200.517L40.2158 190.965L50.0083 180.97L49.5749 180.528Z" fill="black" fill-opacity="0.05"/>
<path d="M69.16 200.517V201.142H78.9525C79.1141 201.142 79.272 201.075 79.3858 200.959C79.4997 200.842 79.5645 200.682 79.5645 200.517V180.528C79.5645 180.363 79.4997 180.203 79.3858 180.085C79.272 179.969 79.1141 179.903 78.9525 179.903H49.575C49.3277 179.903 49.1037 180.055 49.0094 180.289C48.914 180.521 48.9666 180.79 49.1416 180.97L68.7267 200.959C68.8405 201.075 68.9984 201.142 69.16 201.142V200.517L69.5933 200.075L51.0524 181.152H78.9525V180.528H78.3405V199.892H69.16V200.517Z" fill="black" fill-opacity="0.05"/>
<path d="M69.16 200.517L68.7267 200.075L49.1416 220.064C48.9666 220.243 48.914 220.512 49.0094 220.745C49.1037 220.978 49.3277 221.131 49.5749 221.131H78.9537C79.1153 221.131 79.272 221.065 79.3858 220.948C79.5009 220.831 79.5658 220.671 79.5658 220.506L79.5645 200.517C79.5645 200.172 79.2916 199.892 78.9525 199.892H69.16C68.9984 199.892 68.8405 199.958 68.7267 200.075L69.16 200.517V201.142H78.3405L78.3417 219.882H51.0524L69.5933 200.959L69.16 200.517Z" fill="black" fill-opacity="0.05"/>
<path d="M255.218 260.485L254.786 260.044L205.822 310.017C205.708 310.135 205.643 310.294 205.643 310.459V330.189L196.031 339.998C195.917 340.116 195.852 340.276 195.852 340.441V340.442C195.852 340.694 196.001 340.923 196.23 341.019C196.458 341.115 196.721 341.062 196.896 340.884L265.444 270.922C265.559 270.804 265.624 270.645 265.624 270.48V250.49C265.624 250.238 265.474 250.009 265.245 249.913C265.017 249.817 264.753 249.869 264.578 250.048L264.576 250.051C264.462 250.168 264.397 250.328 264.397 250.493L264.398 268.972L255.651 260.044C255.537 259.928 255.38 259.86 255.218 259.86C255.058 259.86 254.9 259.928 254.786 260.044L255.218 260.485L254.786 260.927L264.577 270.922C264.752 271.101 265.015 271.153 265.244 271.057C265.473 270.961 265.622 270.732 265.622 270.48L265.621 250.493H265.009L265.443 250.934L265.444 250.933L265.012 250.49H264.4V270.221L196.031 340L196.464 340.442H197.076V340.441H196.464L196.896 340.883L206.689 330.89C206.804 330.771 206.867 330.615 206.867 330.447V310.718L255.651 260.927L255.218 260.485Z" fill="black" fill-opacity="0.05"/>
<path d="M206.255 300.463L205.822 300.021L196.031 310.014C195.917 310.132 195.852 310.291 195.852 310.456V310.458C195.852 310.71 196.001 310.939 196.23 311.035C196.458 311.131 196.721 311.077 196.896 310.9L250.755 255.929C250.869 255.813 250.934 255.652 250.934 255.487C250.934 255.324 250.869 255.162 250.755 255.046L240.962 245.052C240.849 244.935 240.691 244.868 240.529 244.868C240.369 244.868 240.211 244.935 240.097 245.052L205.822 280.033C205.708 280.15 205.643 280.31 205.643 280.475V300.463H206.255H206.867V280.734L240.529 246.377L249.456 255.487L196.031 310.015L196.464 310.458H197.076V310.456H196.464L196.896 310.899L206.689 300.905C206.804 300.787 206.867 300.63 206.867 300.463H206.255Z" fill="black" fill-opacity="0.05"/>
<path d="M255.218 230.501L254.786 230.06L249.888 235.058C249.65 235.302 249.65 235.697 249.888 235.942L259.681 245.937C259.795 246.053 259.953 246.119 260.114 246.119C260.276 246.119 260.432 246.053 260.547 245.937L265.444 240.938C265.559 240.821 265.624 240.661 265.624 240.496V220.507C265.624 220.254 265.474 220.026 265.245 219.929C265.017 219.833 264.753 219.886 264.578 220.064L264.576 220.067C264.462 220.184 264.397 220.344 264.397 220.509L264.398 238.988L255.651 230.06C255.537 229.944 255.379 229.877 255.218 229.877C255.058 229.877 254.9 229.944 254.786 230.06L255.218 230.501L254.786 230.944L264.577 240.938C264.752 241.117 265.015 241.169 265.244 241.073C265.473 240.977 265.622 240.748 265.622 240.496L265.621 220.509H265.009L265.443 220.95L265.444 220.949L265.012 220.507H264.4V240.237L260.114 244.611L251.187 235.5L255.651 230.944L255.218 230.501Z" fill="black" fill-opacity="0.05"/>
<path d="M98.5388 210.512V209.887H98.5376C98.1997 209.887 97.9255 210.167 97.9255 210.512V240.496C97.9255 240.748 98.0749 240.977 98.3038 241.073C98.5314 241.169 98.7946 241.115 98.9709 240.938L118.556 220.949C118.67 220.831 118.735 220.671 118.735 220.506V210.512C118.735 210.347 118.67 210.187 118.556 210.07C118.441 209.953 118.284 209.887 118.123 209.887H98.5388V210.512V211.137H117.511V220.248L99.1496 238.988V210.512H98.5376V211.137H98.5388V210.512Z" fill="black" fill-opacity="0.05"/>
<path d="M118.123 180.528H118.735V140.549C118.735 140.382 118.671 140.226 118.556 140.108C118.44 139.989 118.287 139.925 118.123 139.925H98.5388C98.3772 139.925 98.2193 139.991 98.1055 140.107C97.9916 140.224 97.9268 140.384 97.9268 140.549V150.544C97.9268 150.709 97.9916 150.869 98.1055 150.986C98.2193 151.102 98.3772 151.168 98.5388 151.168H107.718V169.908H98.5376C98.3772 169.908 98.2193 169.975 98.1055 170.091C97.9916 170.208 97.9255 170.368 97.9255 170.533V180.528C97.9255 180.693 97.9916 180.853 98.1055 180.97C98.2193 181.086 98.3772 181.152 98.5376 181.152H98.5388H118.123C118.284 181.152 118.441 181.086 118.556 180.97C118.67 180.853 118.735 180.693 118.735 180.528H118.123V179.903H98.5388H98.5376V180.528H99.1496V171.158H108.33C108.492 171.158 108.648 171.092 108.763 170.975C108.877 170.858 108.942 170.698 108.942 170.533V150.544C108.942 150.379 108.877 150.219 108.763 150.102C108.648 149.985 108.492 149.919 108.33 149.919H99.1508V141.174H117.511V170.533V180.528H118.123Z" fill="black" fill-opacity="0.05"/>
<path d="M118.123 120.56V121.185H137.708C137.869 121.185 138.026 121.118 138.141 121.002C138.255 120.885 138.32 120.725 138.32 120.56V100.571C138.32 100.406 138.255 100.246 138.141 100.128C138.026 100.012 137.869 99.946 137.708 99.946H128.528V61.2168H137.708C137.869 61.2168 138.026 61.1506 138.141 61.0344C138.255 60.917 138.32 60.7571 138.32 60.5922V40.6029C138.32 40.438 138.255 40.2781 138.141 40.1607C138.026 40.0445 137.869 39.9783 137.708 39.9783H59.3675C59.2059 39.9783 59.0492 40.0445 58.9341 40.1607C58.8203 40.2781 58.7554 40.438 58.7554 40.6029V80.5814C58.7554 80.8338 58.9048 81.0624 59.1337 81.1586C59.3613 81.2548 59.6245 81.2023 59.8008 81.0237L79.2059 61.2168H117.511V99.946H79.2071L59.8008 80.1391C59.6245 79.9605 59.3613 79.908 59.1337 80.0042C58.9048 80.1004 58.7554 80.329 58.7554 80.5814V120.56C58.7554 120.725 58.8203 120.885 58.9341 121.002C59.0492 121.118 59.2059 121.185 59.3675 121.185H98.5376H118.123V120.56V119.935H98.5376H59.9795V82.0894L78.5204 101.013C78.6342 101.129 78.7922 101.195 78.9537 101.195H118.123C118.284 101.195 118.441 101.129 118.556 101.013C118.67 100.895 118.735 100.736 118.735 100.571V60.5922C118.735 60.4273 118.67 60.2673 118.556 60.1499C118.441 60.0337 118.284 59.9675 118.123 59.9675H78.9525C78.7909 59.9675 78.633 60.0337 78.5192 60.1499L59.9795 79.0735V41.2276H137.096V59.9675H127.916C127.755 59.9675 127.597 60.0337 127.483 60.1499C127.369 60.2673 127.304 60.4273 127.304 60.5922V100.571C127.304 100.736 127.369 100.895 127.483 101.013C127.597 101.129 127.755 101.195 127.916 101.195H137.096V119.935H118.123V120.56Z" fill="black" fill-opacity="0.05"/>
<path d="M98.5388 140.549V141.174H157.293C157.54 141.174 157.764 141.021 157.858 140.788C157.952 140.555 157.9 140.286 157.726 140.107L138.141 120.118C138.026 120.001 137.869 119.935 137.708 119.935H118.123H98.5375H59.3675C59.1202 119.935 58.8962 120.088 58.8019 120.321C58.7065 120.554 58.7591 120.822 58.9341 121.002L78.5192 140.991C78.633 141.108 78.7909 141.174 78.9525 141.174H98.5388V140.549V139.925H79.2059L60.8449 121.185H98.5375H118.123H137.454L155.814 139.925H147.5H118.123H98.5388V140.549Z" fill="black" fill-opacity="0.05"/>
<path d="M137.709 60.5922V61.2168H146.889V99.946H137.709H137.708C137.546 99.946 137.389 100.012 137.274 100.128C137.16 100.246 137.096 100.406 137.096 100.571V120.56C137.096 120.725 137.16 120.885 137.274 121.002L156.859 140.991C157.034 141.17 157.298 141.223 157.526 141.126C157.755 141.03 157.905 140.802 157.905 140.549V100.571L157.906 60.5922C157.906 60.4273 157.841 60.2673 157.726 60.1499C157.612 60.0337 157.455 59.9675 157.294 59.9675H157.293V60.5922L157.726 60.1499L138.141 40.1607C137.965 39.982 137.702 39.9295 137.474 40.0257C137.245 40.1219 137.096 40.3506 137.096 40.6029V60.5922C137.096 60.7571 137.16 60.917 137.274 61.0344C137.389 61.1506 137.546 61.2168 137.708 61.2168H137.709V60.5922V59.9675H137.708V60.5922H138.32V42.1109L156.859 61.0344C156.973 61.1506 157.131 61.2168 157.293 61.2168H157.294V60.5922H156.682L156.681 100.571V139.041L138.32 120.301V100.571H137.708V101.195H137.709H147.501C147.663 101.195 147.82 101.129 147.933 101.013C148.049 100.895 148.113 100.736 148.113 100.571V60.5922C148.113 60.4273 148.049 60.2673 147.933 60.1499C147.82 60.0337 147.663 59.9675 147.501 59.9675H137.709V60.5922Z" fill="black" fill-opacity="0.05"/>
<path d="M157.293 100.571L156.859 101.013L169.516 113.93L174.136 118.646C174.251 118.762 174.408 118.83 174.569 118.83C174.731 118.83 174.889 118.762 175.002 118.646C175.118 118.529 175.181 118.371 175.181 118.205C175.181 118.038 175.118 117.881 175.002 117.763L170.386 113.051L169.954 113.492L170.386 113.935C172.05 112.238 174.34 111.19 176.878 111.19C179.414 111.19 181.705 112.238 183.369 113.935C185.031 115.633 186.058 117.971 186.058 120.56C186.058 123.149 185.031 125.487 183.369 127.185C183.13 127.43 183.13 127.825 183.369 128.068L183.373 128.073L196.029 140.991L235.2 180.97C235.313 181.086 235.471 181.152 235.633 181.152H274.803C275.05 181.152 275.274 181 275.368 180.766C275.463 180.533 275.41 180.264 275.236 180.085L196.896 100.128C196.781 100.012 196.624 99.946 196.463 99.946H157.293C157.045 99.946 156.821 100.098 156.727 100.332C156.632 100.564 156.684 100.833 156.859 101.013L157.293 100.571V101.195H196.209L273.324 179.903H235.886L196.896 140.107L184.239 127.19L184.234 127.185L183.802 127.627L184.234 128.068C186.117 126.148 187.282 123.491 187.282 120.56C187.282 114.696 182.623 109.941 176.878 109.941C174.006 109.941 171.401 111.13 169.521 113.051C169.282 113.295 169.282 113.69 169.521 113.935L174.136 118.646C174.251 118.762 174.408 118.83 174.569 118.83C174.731 118.83 174.889 118.762 175.002 118.646C175.118 118.529 175.181 118.371 175.181 118.205C175.181 118.038 175.118 117.881 175.002 117.763L170.382 113.046L157.726 100.128L157.293 100.571Z" fill="black" fill-opacity="0.05"/>
<path d="M255.218 140.549L255.651 140.107L216.66 100.312V80.5815C216.66 80.4165 216.595 80.2566 216.481 80.1392L196.896 60.1499C196.72 59.9713 196.457 59.9188 196.229 60.015C196 60.1112 195.851 60.3398 195.851 60.5922V80.5815V100.571C195.851 100.736 195.916 100.896 196.029 101.013L274.37 180.97C274.545 181.149 274.808 181.201 275.037 181.105C275.266 181.009 275.415 180.78 275.415 180.528V140.549C275.415 140.384 275.35 140.224 275.236 140.107L255.651 120.118C255.475 119.939 255.212 119.887 254.984 119.983C254.755 120.079 254.606 120.308 254.606 120.56V140.549H255.218H255.83V122.068L274.191 140.808V179.02L197.075 100.312V80.5815V62.1002L215.436 80.8401V100.571C215.436 100.736 215.501 100.896 215.615 101.013L254.785 140.991C254.96 141.17 255.223 141.223 255.452 141.126C255.681 141.03 255.83 140.802 255.83 140.549H255.218Z" fill="black" fill-opacity="0.05"/>
<path d="M157.293 180.528L156.859 180.97L196.029 220.948C196.204 221.127 196.468 221.18 196.697 221.083C196.925 220.987 197.075 220.759 197.075 220.506V200.517V180.528V170.533C197.075 170.368 197.01 170.208 196.896 170.091C196.781 169.975 196.624 169.908 196.463 169.908H157.906V151.168H196.463C196.624 151.168 196.781 151.102 196.896 150.986C197.01 150.869 197.075 150.709 197.075 150.544V140.549C197.075 140.384 197.01 140.224 196.896 140.107L184.239 127.19C183.999 126.945 183.614 126.945 183.375 127.188C181.708 128.877 179.415 129.93 176.878 129.93C174.339 129.93 172.048 128.883 170.385 127.186C168.723 125.489 167.697 123.151 167.697 120.56C167.697 117.97 168.729 115.63 170.384 113.929C170.622 113.684 170.62 113.291 170.382 113.047L157.726 100.128C157.55 99.9498 157.287 99.8973 157.059 99.9935C156.83 100.09 156.681 100.318 156.681 100.571V140.549V180.528C156.681 180.693 156.746 180.853 156.859 180.97L157.293 180.528H157.905V140.549V102.079L169.516 113.93L169.95 113.489L169.515 113.049C167.645 114.97 166.473 117.628 166.473 120.56C166.473 126.427 171.13 131.179 176.878 131.179C179.751 131.179 182.354 129.984 184.237 128.075L183.806 127.631L183.373 128.073L195.851 140.808V149.919H157.294C157.132 149.919 156.974 149.985 156.861 150.102C156.747 150.219 156.682 150.379 156.682 150.544V170.533C156.682 170.698 156.747 170.858 156.861 170.975C156.974 171.092 157.132 171.158 157.294 171.158H195.851V180.528V200.517V218.998L157.726 180.085L157.293 180.528Z" fill="black" fill-opacity="0.05"/>
<path d="M157.293 180.528H156.681V190.522C156.681 190.687 156.746 190.847 156.859 190.965L185.804 220.506L157.293 249.607L128.348 220.064C128.233 219.948 128.077 219.882 127.915 219.882H118.123C117.875 219.882 117.651 220.034 117.557 220.268C117.462 220.5 117.514 220.769 117.689 220.948L156.859 260.927C156.973 261.043 157.131 261.109 157.293 261.109C157.454 261.109 157.611 261.043 157.726 260.927L196.896 220.948C197.01 220.831 197.075 220.671 197.075 220.506C197.075 220.341 197.01 220.181 196.896 220.064L157.726 180.085C157.55 179.907 157.287 179.854 157.059 179.951C156.83 180.047 156.681 180.275 156.681 180.528H157.293L156.859 180.97L195.596 220.506L157.293 259.601L119.6 221.131H127.662L156.859 250.932C156.973 251.049 157.131 251.115 157.293 251.115C157.454 251.115 157.611 251.049 157.726 250.932L187.104 220.948C187.217 220.831 187.282 220.671 187.282 220.506C187.282 220.341 187.217 220.181 187.104 220.064L157.905 190.264V180.528H157.293Z" fill="black" fill-opacity="0.05"/>
<path d="M176.878 220.507L176.444 220.064L157.293 239.613L138.573 220.507L157.293 201.401L176.444 220.949L176.878 220.507L177.311 220.064L157.726 200.075C157.611 199.959 157.454 199.893 157.293 199.893C157.131 199.893 156.973 199.959 156.859 200.075L137.274 220.064C137.036 220.309 137.036 220.704 137.274 220.949L156.859 240.938C156.973 241.054 157.131 241.121 157.293 241.121C157.454 241.121 157.611 241.054 157.726 240.938L177.311 220.949C177.425 220.832 177.49 220.672 177.49 220.507C177.49 220.342 177.425 220.182 177.311 220.064L176.878 220.507ZM137.709 210.512V209.887H137.708C137.546 209.887 137.388 209.954 137.274 210.07L127.482 220.064C127.243 220.309 127.243 220.704 127.482 220.949L156.859 250.933C156.973 251.049 157.131 251.115 157.293 251.115C157.454 251.115 157.611 251.049 157.726 250.933L187.104 220.949C187.217 220.832 187.282 220.672 187.282 220.507C187.282 220.342 187.217 220.182 187.104 220.064L157.726 190.081C157.611 189.964 157.454 189.898 157.293 189.898C157.131 189.898 156.973 189.964 156.859 190.081L137.276 210.069C137.162 210.186 137.097 210.346 137.097 210.511V210.512H137.709H138.321V210.511H137.709L138.141 210.953L157.293 191.406L185.804 220.507L157.293 249.607L128.781 220.507L138.141 210.954L137.708 210.512V211.137H137.709C137.87 211.137 138.027 211.071 138.141 210.954C138.256 210.837 138.321 210.677 138.321 210.512H137.709Z" fill="black" fill-opacity="0.05"/>
<path d="M157.293 230.501L157.726 230.059L148.366 220.506L157.293 211.395L166.219 220.506L156.859 230.059L157.293 230.501L157.726 230.943L167.519 220.948C167.632 220.831 167.697 220.671 167.697 220.506C167.697 220.341 167.632 220.181 167.519 220.064L157.726 210.069C157.611 209.953 157.454 209.887 157.293 209.887C157.131 209.887 156.973 209.953 156.859 210.069L147.067 220.064C146.828 220.309 146.828 220.704 147.067 220.948L156.859 230.943C156.973 231.059 157.131 231.125 157.293 231.125C157.454 231.125 157.611 231.059 157.726 230.943L157.293 230.501ZM137.708 220.506L137.274 220.948L156.859 240.938C156.973 241.054 157.131 241.12 157.293 241.12C157.454 241.12 157.611 241.054 157.726 240.938L177.311 220.948C177.425 220.831 177.49 220.671 177.49 220.506C177.49 220.341 177.425 220.181 177.311 220.064L157.726 200.075C157.611 199.959 157.454 199.892 157.293 199.892C157.131 199.892 156.973 199.959 156.859 200.075L137.274 220.064C137.036 220.309 137.036 220.704 137.274 220.948L137.708 220.506L138.141 220.948L157.293 201.4L176.011 220.506L157.293 239.612L138.141 220.064L137.708 220.506Z" fill="black" fill-opacity="0.05"/>
<path d="M147.5 140.55V139.925H118.123C117.961 139.925 117.804 139.991 117.689 140.107C117.575 140.225 117.511 140.385 117.511 140.55V170.534C117.511 170.786 117.66 171.015 117.889 171.111C118.116 171.207 118.38 171.154 118.556 170.976L147.933 140.992C148.107 140.813 148.16 140.543 148.066 140.311C147.971 140.077 147.747 139.925 147.5 139.925V140.55L147.067 140.107L118.735 169.026V141.174H147.5V140.55Z" fill="black" fill-opacity="0.05"/>
<path d="M216.048 200.517L216.481 200.959L221.377 195.962C221.491 195.844 221.556 195.685 221.556 195.52C221.556 195.355 221.491 195.195 221.377 195.077L196.896 170.091C196.72 169.912 196.457 169.86 196.229 169.956C196 170.052 195.851 170.281 195.851 170.533V180.528C195.851 180.693 195.916 180.853 196.029 180.97L215.615 200.959C215.728 201.075 215.886 201.142 216.048 201.142C216.209 201.142 216.366 201.075 216.481 200.959L216.048 200.517L216.481 200.075L197.075 180.269V172.041L220.077 195.52L215.615 200.075L216.048 200.517Z" fill="black" fill-opacity="0.05"/>
<path d="M196.464 150.544H195.852V150.545C195.852 150.71 195.917 150.87 196.031 150.987L230.303 185.967C230.417 186.083 230.575 186.149 230.737 186.149C230.898 186.149 231.055 186.083 231.17 185.967L236.066 180.97C236.18 180.852 236.245 180.692 236.245 180.527C236.245 180.363 236.18 180.203 236.066 180.085L196.896 140.107C196.72 139.928 196.457 139.876 196.229 139.972C196 140.068 195.851 140.297 195.851 140.549V150.544C195.851 150.708 195.916 150.868 196.029 150.986C196.145 151.102 196.301 151.168 196.463 151.168H196.464V150.544V149.919H196.463V150.544H197.075V142.057L234.766 180.527L230.737 184.641L196.896 150.103L196.464 150.545H197.076V150.544C197.076 150.379 197.011 150.219 196.896 150.101C196.782 149.985 196.626 149.919 196.464 149.919V150.544Z" fill="black" fill-opacity="0.05"/>
<path d="M206.255 210.512L206.689 210.07L196.896 200.075C196.72 199.896 196.457 199.844 196.229 199.94C196 200.036 195.851 200.265 195.851 200.517V220.506C195.851 220.759 196 220.987 196.229 221.084C196.457 221.18 196.72 221.126 196.896 220.949L206.689 210.954C206.802 210.837 206.867 210.677 206.867 210.512C206.867 210.347 206.802 210.187 206.689 210.07L206.255 210.512L205.822 210.07L197.075 218.999V202.025L205.822 210.954L206.255 210.512Z" fill="black" fill-opacity="0.05"/>
<path d="M230.737 185.525L230.303 185.967L249.888 205.956C250.002 206.072 250.16 206.139 250.32 206.139C250.482 206.139 250.64 206.072 250.754 205.956L275.236 180.97C275.41 180.791 275.463 180.521 275.368 180.289C275.274 180.055 275.05 179.903 274.803 179.903H235.633C235.471 179.903 235.313 179.969 235.2 180.085L230.303 185.082C230.065 185.327 230.065 185.722 230.303 185.967L230.737 185.525L231.17 185.967L235.886 181.152H273.324L250.32 204.631L231.17 185.082L230.737 185.525Z" fill="black" fill-opacity="0.05"/>
<path d="M157.293 260.485V261.109H196.463C196.624 261.109 196.781 261.043 196.896 260.927L226.274 230.943C226.387 230.826 226.452 230.666 226.452 230.501C226.452 230.336 226.387 230.176 226.274 230.059L206.689 210.069C206.574 209.953 206.417 209.887 206.255 209.887C206.094 209.887 205.936 209.953 205.822 210.069L196.029 220.064L156.859 260.042C156.684 260.221 156.632 260.491 156.727 260.723C156.821 260.957 157.045 261.109 157.293 261.109V260.485L157.726 260.927L196.896 220.948L206.255 211.395L224.974 230.501L196.208 259.86H157.293V260.485Z" fill="black" fill-opacity="0.05"/>
<path d="M235.633 220.506L236.066 220.948L240.962 215.951C241.076 215.834 241.141 215.674 241.141 215.509C241.141 215.344 241.076 215.184 240.962 215.067L221.377 195.077C221.262 194.961 221.106 194.895 220.944 194.895C220.783 194.895 220.625 194.961 220.511 195.077L215.615 200.075C215.376 200.32 215.376 200.714 215.615 200.959L235.2 220.948C235.313 221.065 235.471 221.131 235.633 221.131C235.794 221.131 235.951 221.065 236.066 220.948L235.633 220.506L236.066 220.065L216.913 200.517L220.944 196.403L239.662 215.509L235.2 220.065L235.633 220.506Z" fill="black" fill-opacity="0.05"/>
<path d="M186.67 280.474V279.849H167.697V271.104H186.058V280.474H186.67H187.282V270.479C187.282 270.314 187.217 270.155 187.104 270.037C186.989 269.921 186.832 269.855 186.67 269.855H167.085C166.924 269.855 166.767 269.921 166.652 270.037C166.538 270.155 166.473 270.314 166.473 270.479V280.474C166.473 280.639 166.538 280.799 166.652 280.916C166.767 281.032 166.924 281.099 167.085 281.099H186.67C186.832 281.099 186.989 281.032 187.104 280.916C187.217 280.799 187.282 280.639 187.282 280.474H186.67ZM186.67 300.463V299.839H167.697V291.093H186.058V300.463H186.67H187.282V290.469C187.282 290.304 187.217 290.144 187.104 290.026C186.989 289.91 186.832 289.844 186.67 289.844H167.085C166.924 289.844 166.767 289.91 166.652 290.026C166.538 290.144 166.473 290.304 166.473 290.469V300.463C166.473 300.628 166.538 300.788 166.652 300.906C166.767 301.022 166.924 301.088 167.085 301.088H186.67C186.832 301.088 186.989 301.022 187.104 300.906C187.217 300.788 187.282 300.628 187.282 300.463H186.67ZM196.463 310.458H197.075V260.485C197.075 260.317 197.011 260.161 196.896 260.044C196.78 259.925 196.627 259.86 196.463 259.86H157.293C157.131 259.86 156.974 259.926 156.859 260.042C156.746 260.16 156.681 260.32 156.681 260.485L156.682 340.442C156.682 340.607 156.747 340.767 156.861 340.884C156.974 341 157.132 341.066 157.294 341.066H196.463C196.624 341.066 196.781 341 196.896 340.884C197.01 340.767 197.075 340.607 197.075 340.442V320.452V310.458H196.463H195.851V320.452V339.817H157.906L157.905 261.109H195.851V290.469V310.458H196.463Z" fill="black" fill-opacity="0.05"/>
<path d="M157.293 260.485L156.859 260.043L137.276 280.032C137.162 280.149 137.097 280.309 137.097 280.474V300.462C137.097 300.715 137.246 300.943 137.475 301.039C137.703 301.136 137.966 301.083 138.141 300.905L146.888 291.977V330.189L137.276 339.999C137.162 340.116 137.097 340.276 137.097 340.441V360.431C137.097 360.684 137.246 360.912 137.475 361.008C137.703 361.105 137.966 361.051 138.141 360.874L157.726 340.884C157.842 340.766 157.906 340.609 157.906 340.442L157.905 260.485C157.905 260.233 157.755 260.004 157.526 259.908C157.298 259.812 157.034 259.864 156.859 260.043L157.293 260.485H156.681L156.682 340.183L138.321 358.922V340.699L147.934 330.89C148.047 330.772 148.112 330.612 148.112 330.447V290.469C148.112 290.217 147.963 289.988 147.734 289.892C147.505 289.796 147.242 289.848 147.067 290.027L138.32 298.954V280.733L157.726 260.927L157.293 260.485Z" fill="black" fill-opacity="0.05"/>
<path d="M137.709 360.431V361.056H176.879C177.041 361.056 177.197 360.989 177.311 360.873L196.896 340.884C197.07 340.705 197.123 340.436 197.028 340.203C196.934 339.97 196.71 339.817 196.463 339.817H157.294C157.132 339.817 156.974 339.883 156.861 339.999L137.276 359.989C137.1 360.167 137.048 360.437 137.143 360.67C137.238 360.903 137.462 361.056 137.709 361.056V360.431L138.141 360.873L157.547 341.066H194.984L176.624 359.806H137.709V360.431Z" fill="black" fill-opacity="0.05"/>
<path d="M118.123 220.506L117.689 220.064L98.1042 240.053C97.8655 240.298 97.8655 240.693 98.1042 240.938L137.276 280.916C137.389 281.032 137.547 281.099 137.709 281.099C137.87 281.099 138.027 281.032 138.141 280.916L157.726 260.927C157.84 260.81 157.905 260.65 157.905 260.485C157.905 260.32 157.84 260.16 157.726 260.042L118.556 220.064C118.441 219.948 118.284 219.882 118.123 219.882C117.961 219.882 117.803 219.948 117.689 220.064L118.123 220.506L117.689 220.948L156.426 260.485L137.709 279.591L99.403 240.495L118.556 220.948L118.123 220.506Z" fill="black" fill-opacity="0.05"/>
<path d="M118.123 100.571H118.735V60.5921C118.735 60.3398 118.585 60.1111 118.356 60.0149C118.127 59.9187 117.864 59.9712 117.689 60.1499L98.1042 80.1391C97.8655 80.384 97.8655 80.7788 98.1042 81.0237L117.689 101.013C117.864 101.192 118.127 101.244 118.356 101.148C118.585 101.052 118.735 100.823 118.735 100.571H118.123L118.556 100.128L99.403 80.5814L117.511 62.1001V100.571H118.123Z" fill="black" fill-opacity="0.05"/>
<path d="M118.123 60.5921V59.9675H78.9525C78.7909 59.9675 78.633 60.0337 78.5192 60.1499L58.9341 80.1391C58.7591 80.3178 58.7065 80.5876 58.8019 80.82C58.8962 81.0536 59.1202 81.2061 59.3675 81.2061H98.5375C98.6991 81.2061 98.8558 81.1398 98.9709 81.0237L118.556 61.0344C118.73 60.8558 118.782 60.5859 118.688 60.3535C118.594 60.1199 118.37 59.9675 118.123 59.9675V60.5921L117.689 60.1499L98.2829 79.9567H60.8449L79.2059 61.2168H118.123V60.5921Z" fill="black" fill-opacity="0.05"/>
<path d="M127.915 210.512V209.887H118.123C117.961 209.887 117.804 209.953 117.689 210.069C117.575 210.187 117.511 210.347 117.511 210.512V220.506C117.511 220.671 117.575 220.831 117.689 220.948C117.804 221.065 117.961 221.131 118.123 221.131H127.915C128.077 221.131 128.233 221.065 128.348 220.948C128.462 220.831 128.527 220.671 128.527 220.506V210.512C128.527 210.347 128.462 210.187 128.348 210.069C128.233 209.953 128.077 209.887 127.915 209.887V210.512H127.303V219.882H118.735V210.512H118.123V211.136H118.124H127.915V210.512Z" fill="black" fill-opacity="0.05"/>
<path d="M127.915 180.528H128.527V170.533C128.527 170.368 128.462 170.208 128.348 170.091C128.233 169.975 128.077 169.908 127.915 169.908H118.123C117.961 169.908 117.804 169.975 117.689 170.091C117.575 170.208 117.511 170.368 117.511 170.533V180.528C117.511 180.693 117.575 180.853 117.689 180.97C117.804 181.086 117.961 181.152 118.123 181.152H118.124H127.915C128.077 181.152 128.233 181.086 128.348 180.97C128.462 180.853 128.527 180.693 128.527 180.528H127.915V179.903H118.124H118.123V180.528H118.735V171.158H127.303V180.528H127.915Z" fill="black" fill-opacity="0.05"/>
<path d="M127.915 170.534L128.348 170.976L157.726 140.992C157.9 140.813 157.952 140.543 157.858 140.311C157.764 140.077 157.54 139.925 157.293 139.925H147.5C147.339 139.925 147.181 139.991 147.067 140.107L117.689 170.091C117.514 170.27 117.462 170.54 117.557 170.772C117.651 171.006 117.875 171.158 118.123 171.158H127.915C128.077 171.158 128.233 171.092 128.348 170.976L127.915 170.534V169.909H119.6L147.754 141.174H155.815L127.482 170.091L127.915 170.534Z" fill="black" fill-opacity="0.05"/>
<path d="M127.915 210.512H127.303V220.506C127.303 220.759 127.452 220.987 127.681 221.084C127.909 221.18 128.172 221.126 128.348 220.949L138.141 210.954C138.315 210.775 138.367 210.506 138.273 210.273C138.179 210.04 137.955 209.887 137.708 209.887H127.915C127.754 209.887 127.597 209.953 127.482 210.07C127.368 210.187 127.303 210.347 127.303 210.512H127.915V211.136H136.23L128.527 218.999V210.512H127.915Z" fill="black" fill-opacity="0.05"/>
<path d="M127.915 180.527V181.152H137.097V210.51C137.097 210.762 137.246 210.991 137.475 211.087C137.703 211.183 137.966 211.131 138.141 210.952L157.726 190.964C157.84 190.847 157.905 190.687 157.905 190.522V180.527V140.549C157.905 140.297 157.755 140.068 157.526 139.972C157.298 139.876 157.034 139.928 156.859 140.107L127.482 170.091C127.368 170.208 127.303 170.368 127.303 170.533V180.527C127.303 180.692 127.368 180.852 127.482 180.97C127.597 181.086 127.754 181.152 127.915 181.152V180.527H128.527V170.791L156.681 142.057V180.527V190.263L138.321 209.002V180.527C138.321 180.363 138.256 180.203 138.141 180.085C138.027 179.969 137.87 179.903 137.709 179.903H127.915V180.527Z" fill="black" fill-opacity="0.05"/>
<path d="M196.464 150.545H195.852V170.533H196.464V169.908H196.463C196.216 169.908 195.992 170.061 195.897 170.294C195.802 170.527 195.854 170.795 196.029 170.975L220.511 195.962L240.096 215.951L254.786 230.943L264.577 240.938C264.752 241.116 265.015 241.169 265.244 241.073C265.473 240.976 265.622 240.748 265.622 240.495L265.621 220.509V220.506C265.621 220.341 265.556 220.181 265.443 220.064L250.754 205.073L231.17 185.083L196.896 150.103C196.721 149.924 196.458 149.872 196.23 149.968C196.001 150.064 195.852 150.293 195.852 150.545H196.464L196.031 150.987L230.303 185.967L249.888 205.957L264.576 220.948L265.009 220.506H264.397V220.509L264.398 238.987L255.651 230.06L240.962 215.067L221.377 195.077L196.896 170.091L196.463 170.533V171.158H196.464C196.628 171.158 196.781 171.093 196.896 170.974C197.012 170.857 197.076 170.7 197.076 170.533V150.545H196.464Z" fill="black" fill-opacity="0.05"/>
<path d="M235.633 220.506L236.066 220.065L216.481 200.074L196.896 180.085C196.72 179.906 196.457 179.854 196.229 179.95C196 180.046 195.851 180.275 195.851 180.527V200.516C195.851 200.681 195.916 200.841 196.029 200.959L205.822 210.953L225.407 230.943L240.097 245.935L249.89 255.929L254.786 260.926L264.577 270.921C264.752 271.1 265.015 271.152 265.244 271.056C265.473 270.96 265.622 270.731 265.622 270.479L265.621 250.492V250.49C265.621 250.325 265.556 250.165 265.443 250.047L260.548 245.051L250.755 235.057L236.066 220.065L235.633 220.506L235.2 220.948L249.888 235.941L259.681 245.936L264.576 250.932L265.009 250.49H264.397V250.492L264.398 268.971L255.651 260.043L250.755 255.046L240.962 245.051L226.274 230.058L206.689 210.069L197.075 200.258V182.035L215.615 200.959L235.2 220.948L235.633 220.506Z" fill="black" fill-opacity="0.05"/>
<path d="M206.255 300.463H206.867V280.474C206.867 280.221 206.718 279.993 206.489 279.897C206.26 279.8 205.997 279.853 205.822 280.031L196.029 290.026C195.916 290.144 195.851 290.303 195.851 290.468V310.458C195.851 310.71 196 310.939 196.229 311.035C196.457 311.131 196.72 311.077 196.896 310.9V310.899L206.689 300.905C206.804 300.787 206.867 300.63 206.867 300.463H206.255L205.822 300.021L196.031 310.014L196.029 310.015L196.463 310.458H197.075V290.727L206.689 280.916L206.255 280.474H205.643V280.475V300.463H206.255Z" fill="black" fill-opacity="0.05"/>
<path d="M206.255 310.459H206.867V310.458C206.867 310.206 206.718 309.977 206.489 309.881C206.26 309.785 205.997 309.837 205.822 310.016L196.029 320.01C195.916 320.128 195.851 320.288 195.851 320.453V340.442C195.851 340.694 196 340.923 196.229 341.019C196.457 341.115 196.72 341.062 196.896 340.884V340.883L206.689 330.89C206.804 330.771 206.867 330.615 206.867 330.447V310.459H206.255H205.643V330.189L196.031 339.998L196.029 340L196.463 340.442H197.075V320.711L206.689 310.9L206.255 310.458H205.643V310.459H206.255Z" fill="black" fill-opacity="0.05"/>
<path d="M127.915 300.463H127.303V340.442C127.303 340.607 127.368 340.767 127.482 340.884C127.597 341 127.754 341.066 127.915 341.066H137.708C137.869 341.066 138.026 341 138.141 340.884C138.255 340.767 138.32 340.607 138.32 340.442V300.463C138.32 300.298 138.255 300.138 138.141 300.021C138.026 299.905 137.869 299.839 137.708 299.839H127.915C127.754 299.839 127.597 299.905 127.482 300.021C127.368 300.138 127.303 300.298 127.303 300.463H127.915V301.088H137.096V339.817H128.527V300.463H127.915Z" fill="black" fill-opacity="0.05"/>
<path d="M147.5 290.469L147.067 290.027L137.276 300.02L137.274 300.021C137.16 300.139 137.096 300.299 137.096 300.464V340.442C137.096 340.694 137.245 340.923 137.474 341.019C137.702 341.115 137.965 341.062 138.141 340.884V340.883L147.933 330.89C148.047 330.772 148.112 330.612 148.112 330.447V290.469C148.112 290.217 147.963 289.988 147.734 289.892C147.505 289.796 147.242 289.848 147.067 290.027L147.5 290.469H146.888V330.189L137.276 339.998L137.274 340L137.708 340.442H138.32V300.464H137.708L138.141 300.906V300.905L147.933 290.911L147.5 290.469Z" fill="black" fill-opacity="0.05"/>
<path d="M98.5376 210.512V209.887C96.0001 209.887 93.7098 208.839 92.0463 207.142C90.3841 205.444 89.3571 203.106 89.3571 200.517V190.522C89.3571 187.934 90.3841 185.595 92.0463 183.897C93.7098 182.201 96.0001 181.152 98.5376 181.152C98.6991 181.152 98.857 181.086 98.9709 180.97C99.0847 180.853 99.1496 180.693 99.1496 180.528V170.533C99.1496 170.368 99.0847 170.208 98.9709 170.091C98.857 169.975 98.6991 169.908 98.5376 169.908H89.3571V151.169H98.5376H98.5388C98.7004 151.169 98.857 151.102 98.9709 150.986C99.0859 150.869 99.1508 150.709 99.1508 150.544V140.549C99.1508 140.384 99.0859 140.224 98.9709 140.107C98.857 139.991 98.7004 139.925 98.5388 139.925H78.9525C78.7909 139.925 78.6343 139.991 78.5192 140.107C78.4054 140.224 78.3405 140.384 78.3405 140.549V180.528V200.517L78.3417 220.506V240.495C78.3417 240.66 78.4066 240.82 78.5204 240.938C78.6343 241.054 78.7922 241.12 78.9537 241.12H98.5376C98.7016 241.12 98.8546 241.055 98.9709 240.936C99.0859 240.819 99.1496 240.663 99.1496 240.495V210.512C99.1496 210.344 99.0859 210.188 98.9709 210.071C98.8558 209.952 98.7016 209.887 98.5376 209.887V210.512H97.9255V239.871H79.5658V220.506L79.5645 200.517V180.528V141.174H97.9268V150.544H98.5388V149.919H98.5376H88.745C88.5835 149.919 88.4268 149.985 88.3117 150.102C88.1979 150.219 88.133 150.379 88.133 150.544V170.533C88.133 170.698 88.1979 170.858 88.3117 170.975C88.4268 171.092 88.5835 171.158 88.745 171.158H98.5376V170.533H97.9255V180.528H98.5376V179.903C92.7906 179.903 88.133 184.658 88.133 190.522V200.517C88.133 206.381 92.7906 211.136 98.5376 211.136V210.512Z" fill="black" fill-opacity="0.05"/>
<path d="M78.9537 240.495L78.5204 240.938L117.689 280.916C117.803 281.032 117.961 281.099 118.123 281.099H137.709C137.956 281.099 138.179 280.946 138.274 280.713C138.369 280.479 138.316 280.21 138.141 280.032L98.9709 240.053C98.8558 239.937 98.6991 239.871 98.5375 239.871H78.9537C78.7065 239.871 78.4825 240.023 78.3882 240.257C78.2927 240.489 78.3454 240.758 78.5204 240.938L78.9537 240.495V241.12H98.2829L136.23 279.849H118.376L79.3858 240.053L78.9537 240.495Z" fill="black" fill-opacity="0.05"/>
<path d="M118.123 100.571L118.556 100.128L98.9709 80.1391C98.8558 80.0229 98.6991 79.9567 98.5375 79.9567H59.3675C59.1202 79.9567 58.8962 80.1092 58.8019 80.3428C58.7065 80.5752 58.7591 80.8438 58.9341 81.0237L78.5204 101.013C78.6342 101.129 78.7922 101.195 78.9537 101.195H118.123C118.37 101.195 118.594 101.043 118.688 100.809C118.782 100.577 118.73 100.307 118.556 100.128L118.123 100.571V99.946H79.2071L60.8449 81.2061H98.2829L117.689 101.013L118.123 100.571Z" fill="black" fill-opacity="0.05"/>
<path d="M216.048 80.5814L215.614 81.0237L254.785 121.002C254.96 121.181 255.223 121.233 255.452 121.137C255.681 121.041 255.83 120.812 255.83 120.56V100.571C255.83 100.406 255.765 100.246 255.651 100.128L216.481 60.1499C216.305 59.9712 216.042 59.9188 215.814 60.015C215.585 60.1112 215.436 60.3398 215.436 60.5922V80.5814C215.436 80.7463 215.501 80.9062 215.614 81.0237L216.048 80.5814H216.66V62.1001L254.606 100.829V119.052L216.481 80.1391L216.048 80.5814Z" fill="black" fill-opacity="0.05"/>
<path d="M216.048 100.571L215.614 101.013L254.785 140.991C254.96 141.17 255.223 141.223 255.452 141.126C255.681 141.03 255.83 140.802 255.83 140.549V120.56C255.83 120.395 255.765 120.235 255.651 120.118L216.481 80.1392C216.305 79.9605 216.042 79.908 215.814 80.0042C215.585 80.1004 215.436 80.3291 215.436 80.5814V100.571C215.436 100.736 215.501 100.895 215.614 101.013L216.048 100.571H216.66V82.0894L254.606 120.819V139.041L216.481 100.128L216.048 100.571Z" fill="black" fill-opacity="0.05"/>
<path d="M88.745 150.544H88.133V170.534C88.133 170.698 88.1979 170.858 88.3117 170.976C88.4268 171.092 88.5835 171.158 88.745 171.158H98.5375C98.6991 171.158 98.8558 171.092 98.9709 170.976C99.0847 170.858 99.1496 170.698 99.1496 170.534V150.544C99.1496 150.379 99.0847 150.219 98.9709 150.102C98.8558 149.986 98.6991 149.92 98.5375 149.92H88.745C88.5835 149.92 88.4268 149.986 88.3117 150.102C88.1979 150.219 88.133 150.379 88.133 150.544H88.745V151.169H97.9255V169.909H89.3571V150.544H88.745Z" fill="black" fill-opacity="0.05"/>
<path d="M108.33 150.544V149.92H98.5376C98.376 149.92 98.2193 149.986 98.1042 150.102C97.9904 150.219 97.9255 150.379 97.9255 150.544V170.534C97.9255 170.698 97.9904 170.858 98.1042 170.976C98.2193 171.092 98.376 171.158 98.5376 171.158H108.33C108.492 171.158 108.648 171.092 108.763 170.976C108.877 170.858 108.942 170.698 108.942 170.534V150.544C108.942 150.379 108.877 150.219 108.763 150.102C108.648 149.986 108.492 149.92 108.33 149.92V150.544H107.718V169.909H98.5376V170.534H99.1496V150.544H98.5376V151.169H98.5388H108.33V150.544Z" fill="black" fill-opacity="0.05"/>
<path d="M255.218 100.571H255.83V80.5814C255.83 80.4165 255.765 80.2566 255.651 80.1391L216.481 40.1606C216.305 39.982 216.042 39.9295 215.814 40.0257C215.585 40.1219 215.436 40.3505 215.436 40.6029V60.5921C215.436 60.7571 215.501 60.917 215.614 61.0344L254.785 101.013C254.96 101.192 255.223 101.244 255.452 101.148C255.681 101.052 255.83 100.823 255.83 100.571H255.218L255.651 100.128L216.66 60.3335V42.1109L254.606 80.84V100.571H255.218Z" fill="black" fill-opacity="0.05"/>
<path d="M98.5388 180.528V179.904H98.5375C92.7906 179.904 88.133 184.658 88.133 190.523V200.517C88.133 206.382 92.7906 211.137 98.5375 211.137H98.5388C98.7028 211.137 98.8558 211.072 98.9709 210.953C99.0872 210.836 99.1508 210.679 99.1508 210.512V180.528C99.1508 180.361 99.0872 180.205 98.9709 180.087C98.8558 179.968 98.7028 179.904 98.5388 179.904V180.528H97.9267V210.512H98.5388V209.887H98.5375C96.0001 209.887 93.7098 208.839 92.0463 207.143C90.384 205.445 89.3571 203.106 89.3571 200.517V190.523C89.3571 187.934 90.384 185.595 92.0463 183.898C93.7098 182.201 96.0001 181.153 98.5375 181.153H98.5388V180.528Z" fill="black" fill-opacity="0.05"/>
<path d="M118.123 180.528V179.904H98.5388C98.3772 179.904 98.2193 179.97 98.1055 180.086C97.9916 180.203 97.9268 180.363 97.9268 180.528V210.512C97.9268 210.677 97.9916 210.837 98.1055 210.954C98.2193 211.071 98.3772 211.137 98.5388 211.137H118.123H118.124C118.288 211.137 118.441 211.072 118.556 210.953C118.672 210.836 118.736 210.679 118.736 210.512V180.528C118.736 180.361 118.672 180.205 118.556 180.087C118.441 179.968 118.288 179.904 118.124 179.904H118.123V180.528V181.153H118.124V180.528H117.512V210.512H118.124V209.887H118.123H99.1496V181.153H118.123V180.528Z" fill="black" fill-opacity="0.05"/>
<path d="M137.709 210.512H138.321V180.528C138.321 180.363 138.256 180.203 138.141 180.086C138.027 179.97 137.87 179.904 137.709 179.904H127.915H118.124C117.962 179.904 117.804 179.97 117.69 180.086C117.577 180.203 117.512 180.363 117.512 180.528V210.512C117.512 210.677 117.577 210.837 117.69 210.954C117.804 211.071 117.962 211.137 118.124 211.137H127.915H137.708H137.709C137.87 211.137 138.027 211.071 138.141 210.954C138.256 210.837 138.321 210.677 138.321 210.512H137.709V209.887H137.708H127.915H118.735V181.153H127.915H137.097V210.511V210.512H137.709Z" fill="black" fill-opacity="0.05"/>
<path d="M176.878 130.555V131.18C179.751 131.18 182.354 129.984 184.237 128.075C184.353 127.958 184.418 127.8 184.418 127.633C184.418 127.465 184.354 127.308 184.239 127.191L184.234 127.186C184.121 127.069 183.963 127.003 183.802 127.003C183.641 127.003 183.483 127.069 183.369 127.186L183.368 127.187L183.801 127.628L184.234 127.187L175.002 117.763L170.382 113.047C170.267 112.93 170.111 112.865 169.948 112.865C169.784 112.865 169.63 112.931 169.515 113.049C167.645 114.971 166.473 117.628 166.473 120.56C166.473 126.427 171.13 131.18 176.878 131.18V130.555V129.93C174.339 129.93 172.048 128.883 170.385 127.187C168.723 125.489 167.697 123.152 167.697 120.56C167.697 117.971 168.729 115.631 170.384 113.929L169.95 113.489L169.516 113.93L174.136 118.646L183.368 128.07C183.483 128.186 183.64 128.253 183.801 128.253C183.963 128.253 184.121 128.186 184.234 128.07V128.069L183.802 127.628L183.369 128.069L183.373 128.074L183.806 127.632L183.375 127.188C181.708 128.877 179.415 129.93 176.878 129.93V130.555Z" fill="black" fill-opacity="0.05"/>
<path d="M183.802 127.627L184.234 128.068C186.117 126.148 187.282 123.491 187.282 120.56C187.282 114.695 182.623 109.941 176.878 109.941C174.006 109.941 171.401 111.13 169.521 113.051C169.282 113.295 169.282 113.69 169.521 113.935L174.136 118.646L183.368 128.07C183.483 128.186 183.639 128.252 183.801 128.252C183.963 128.252 184.121 128.186 184.234 128.07V128.068L183.802 127.627L183.369 127.185L183.368 127.186L183.801 127.627L184.234 127.186L175.002 117.763L170.387 113.051L169.954 113.492L170.387 113.935C172.05 112.238 174.34 111.19 176.878 111.19C179.414 111.19 181.705 112.238 183.369 113.935C185.031 115.632 186.058 117.971 186.058 120.56C186.058 123.148 185.031 125.487 183.369 127.185L183.802 127.627Z" fill="black" fill-opacity="0.05"/>
<path d="M147.5 220.506L147.067 220.948L156.859 230.943C156.973 231.059 157.131 231.125 157.293 231.125C157.454 231.125 157.611 231.059 157.726 230.943L167.519 220.948C167.632 220.831 167.697 220.671 167.697 220.506C167.697 220.341 167.632 220.181 167.519 220.063L157.726 210.069C157.611 209.953 157.454 209.886 157.293 209.886C157.131 209.886 156.973 209.953 156.859 210.069L147.067 220.063C146.828 220.308 146.828 220.703 147.067 220.948L147.5 220.506L147.933 220.948L157.293 211.394L166.219 220.506L157.293 229.617L147.933 220.063L147.5 220.506Z" fill="black" fill-opacity="0.05"/>
<path d="M147.501 100.571H148.113V60.5922C148.113 60.4272 148.049 60.2673 147.934 60.1499C147.82 60.0337 147.663 59.9675 147.501 59.9675H137.709C137.547 59.9675 137.389 60.0337 137.276 60.1499C137.162 60.2673 137.097 60.4272 137.097 60.5922V100.571C137.097 100.736 137.162 100.895 137.276 101.013C137.389 101.129 137.547 101.195 137.709 101.195H147.501C147.663 101.195 147.82 101.129 147.934 101.013C148.049 100.895 148.113 100.736 148.113 100.571H147.501V99.946H138.321V61.2168H146.889V100.571H147.501Z" fill="black" fill-opacity="0.05"/>
<path d="M137.709 60.5922V59.9675H127.916C127.755 59.9675 127.597 60.0337 127.483 60.1499C127.369 60.2673 127.304 60.4272 127.304 60.5922V100.571C127.304 100.736 127.369 100.895 127.483 101.013C127.597 101.129 127.755 101.195 127.916 101.195H137.708H137.709C137.87 101.195 138.027 101.129 138.141 101.013C138.256 100.895 138.321 100.736 138.321 100.571V60.5922C138.321 60.4272 138.256 60.2673 138.141 60.1499C138.027 60.0337 137.87 59.9675 137.709 59.9675V60.5922H137.097V100.571H137.709V99.946H137.708H128.528V61.2168H137.708H137.709V60.5922Z" fill="black" fill-opacity="0.05"/>
<path d="M176.878 165.536L177.311 165.094L172.847 160.539L176.878 156.425L180.907 160.539L176.444 165.094L176.878 165.536L177.311 165.978L182.207 160.981C182.321 160.864 182.386 160.704 182.386 160.539C182.386 160.374 182.321 160.214 182.207 160.097L177.311 155.099C177.196 154.983 177.039 154.917 176.878 154.917C176.716 154.917 176.558 154.983 176.444 155.099L171.548 160.097C171.309 160.342 171.309 160.736 171.548 160.981L176.444 165.978C176.558 166.095 176.716 166.161 176.878 166.161C177.039 166.161 177.196 166.095 177.311 165.978L176.878 165.536ZM196.463 150.544V149.92H157.294C157.132 149.92 156.974 149.986 156.861 150.102C156.747 150.219 156.682 150.379 156.682 150.544V170.534C156.682 170.698 156.747 170.858 156.861 170.976C156.974 171.092 157.132 171.158 157.294 171.158H196.463H196.464C196.628 171.158 196.781 171.093 196.896 170.975C197.012 170.857 197.076 170.701 197.076 170.534V150.546V150.544C197.076 150.379 197.011 150.219 196.896 150.102C196.782 149.986 196.626 149.92 196.464 149.92H196.463V150.544V151.169H196.464V150.544H195.852V150.546V170.534H196.464V169.909H196.463H157.906V151.169H196.463V150.544Z" fill="black" fill-opacity="0.05"/>
<path d="M171.981 160.538L171.548 160.98L176.444 165.978C176.558 166.094 176.716 166.16 176.878 166.16C177.039 166.16 177.196 166.094 177.311 165.978L182.207 160.98C182.321 160.863 182.386 160.703 182.386 160.538C182.386 160.373 182.321 160.213 182.207 160.096L177.311 155.099C177.196 154.982 177.039 154.916 176.878 154.916C176.716 154.916 176.558 154.982 176.444 155.099L171.548 160.096C171.309 160.341 171.309 160.736 171.548 160.98L171.981 160.538L172.415 160.98L176.878 156.424L180.907 160.538L176.878 164.652L172.415 160.096L171.981 160.538Z" fill="black" fill-opacity="0.05"/>
<path d="M147.5 20.6136L147.933 21.0559L157.293 11.5023L166.219 20.6136L161.756 25.1687L157.293 29.725L152.83 25.1687L147.933 20.1714L147.5 20.6136L147.067 21.0559L151.963 26.0532L156.859 31.0505C156.973 31.1667 157.131 31.2329 157.293 31.2329C157.454 31.2329 157.611 31.1667 157.726 31.0505L162.622 26.0532L167.519 21.0559C167.632 20.9385 167.697 20.7785 167.697 20.6136C167.697 20.4487 167.632 20.2888 167.519 20.1714L157.726 10.1767C157.611 10.0606 157.454 9.99434 157.293 9.99434C157.131 9.99434 156.973 10.0606 156.859 10.1767L147.067 20.1714C146.828 20.4162 146.828 20.811 147.067 21.0559L147.5 20.6136ZM176.878 20.6136L177.311 20.1714L157.726 0.182117C157.611 0.0659294 157.454 -0.000282288 157.293 -0.000282288C157.131 -0.000282288 156.973 0.0659294 156.859 0.182117L137.274 20.1714C137.036 20.4162 137.036 20.811 137.274 21.0559L156.859 41.0451C156.973 41.1613 157.131 41.2275 157.293 41.2275C157.454 41.2275 157.611 41.1613 157.726 41.0451L177.311 21.0559C177.425 20.9385 177.49 20.7785 177.49 20.6136C177.49 20.4487 177.425 20.2888 177.311 20.1714L176.878 20.6136L176.444 20.1714L157.293 39.7196L138.573 20.6136L157.293 1.50767L176.444 21.0559L176.878 20.6136Z" fill="black" fill-opacity="0.05"/>
<path d="M157.293 60.5921V61.2168H157.294C157.455 61.2168 157.612 61.1506 157.726 61.0344L177.311 41.0452C177.425 40.9277 177.49 40.7678 177.49 40.6029V20.6136C177.49 20.3613 177.34 20.1326 177.112 20.0364C176.883 19.9402 176.619 19.9927 176.444 20.1714L156.859 40.1606C156.746 40.2781 156.681 40.438 156.681 40.6029V60.5921C156.681 60.757 156.746 60.917 156.859 61.0344C156.974 61.1506 157.131 61.2168 157.293 61.2168V60.5921H157.905V40.8615L176.266 22.1216V40.3443L156.861 60.1499L157.294 60.5921V59.9675H157.293V60.5921Z" fill="black" fill-opacity="0.05"/>
<path d="M157.293 40.6029L157.726 40.1606L138.141 20.1714C137.965 19.9927 137.702 19.9402 137.474 20.0364C137.245 20.1326 137.096 20.3613 137.096 20.6136V40.6029C137.096 40.7678 137.16 40.9277 137.274 41.0451L156.859 61.0344C157.034 61.213 157.298 61.2655 157.526 61.1693C157.755 61.0731 157.905 60.8445 157.905 60.5921V40.6029C157.905 40.438 157.84 40.278 157.726 40.1606L157.293 40.6029H156.681V59.0842L138.32 40.3443V22.1216L156.859 41.0451L157.293 40.6029Z" fill="black" fill-opacity="0.05"/>
<path d="M186.67 20.6136L187.104 21.0559L196.463 11.5023L205.389 20.6136L200.926 25.1687L196.463 29.725L192 25.1687L187.104 20.1714L186.67 20.6136L186.237 21.0559L191.133 26.0532L196.029 31.0505C196.143 31.1667 196.301 31.2329 196.463 31.2329C196.624 31.2329 196.781 31.1667 196.896 31.0505L201.792 26.0532L206.689 21.0559C206.802 20.9385 206.867 20.7785 206.867 20.6136C206.867 20.4487 206.802 20.2888 206.689 20.1714L196.896 10.1767C196.781 10.0606 196.624 9.99434 196.463 9.99434C196.301 9.99434 196.143 10.0606 196.029 10.1767L186.237 20.1714C185.998 20.4162 185.998 20.811 186.237 21.0559L186.67 20.6136ZM216.048 20.6136L216.481 20.1714L196.896 0.182117C196.781 0.0659294 196.624 -0.000282288 196.463 -0.000282288C196.301 -0.000282288 196.143 0.0659294 196.029 0.182117L176.444 20.1714C176.206 20.4162 176.206 20.811 176.444 21.0559L196.029 41.0451C196.143 41.1613 196.301 41.2275 196.463 41.2275C196.624 41.2275 196.781 41.1613 196.896 41.0451L216.481 21.0559C216.595 20.9385 216.66 20.7785 216.66 20.6136C216.66 20.4487 216.595 20.2888 216.481 20.1714L216.048 20.6136L215.614 20.1714L196.463 39.7196L177.743 20.6136L196.463 1.50767L215.614 21.0559L216.048 20.6136Z" fill="black" fill-opacity="0.05"/>
<path d="M162.189 25.6107L162.622 26.053L167.519 21.0556C167.632 20.9382 167.697 20.7783 167.697 20.6134C167.697 20.4485 167.632 20.2885 167.519 20.1711L157.726 10.1765C157.611 10.0603 157.454 9.99409 157.293 9.99409C157.131 9.99409 156.973 10.0603 156.859 10.1765L147.067 20.1711C146.828 20.416 146.828 20.8108 147.067 21.0556L151.963 26.053C152.077 26.1691 152.235 26.2354 152.396 26.2354C152.558 26.2354 152.715 26.1691 152.83 26.053L157.293 21.4967L161.756 26.053C161.869 26.1691 162.027 26.2354 162.189 26.2354C162.351 26.2354 162.507 26.1691 162.622 26.053L162.189 25.6107L162.622 25.1684L157.726 20.1711C157.611 20.0549 157.454 19.9887 157.293 19.9887C157.131 19.9887 156.973 20.0549 156.859 20.1711L152.396 24.7274L148.366 20.6134L157.293 11.502L166.219 20.6134L161.756 25.1684L162.189 25.6107Z" fill="black" fill-opacity="0.05"/>
<path d="M201.359 25.6107L201.792 26.053L206.689 21.0556C206.802 20.9382 206.867 20.7783 206.867 20.6134C206.867 20.4485 206.802 20.2885 206.689 20.1711L196.896 10.1765C196.781 10.0603 196.624 9.99409 196.463 9.99409C196.301 9.99409 196.143 10.0603 196.029 10.1765L186.237 20.1711C185.998 20.416 185.998 20.8108 186.237 21.0556L191.133 26.053C191.247 26.1691 191.405 26.2354 191.567 26.2354C191.728 26.2354 191.885 26.1691 192 26.053L196.463 21.4967L200.926 26.053C201.04 26.1691 201.197 26.2354 201.359 26.2354C201.521 26.2354 201.677 26.1691 201.792 26.053L201.359 25.6107L201.792 25.1684L196.896 20.1711C196.781 20.0549 196.624 19.9887 196.463 19.9887C196.301 19.9887 196.143 20.0549 196.029 20.1711L191.567 24.7274L187.536 20.6134L196.463 11.502L205.389 20.6134L200.926 25.1684L201.359 25.6107Z" fill="black" fill-opacity="0.05"/>
<path d="M162.189 25.6114L162.622 25.1692L157.726 20.1718C157.611 20.0557 157.454 19.9894 157.293 19.9894C157.131 19.9894 156.973 20.0557 156.859 20.1718L151.963 25.1692C151.724 25.414 151.724 25.8088 151.963 26.0537L156.859 31.051C156.973 31.1672 157.131 31.2334 157.293 31.2334C157.454 31.2334 157.611 31.1672 157.726 31.051L162.622 26.0537C162.736 25.9363 162.801 25.7763 162.801 25.6114C162.801 25.4465 162.736 25.2866 162.622 25.1692L162.189 25.6114L161.756 25.1692L157.293 29.7255L153.262 25.6114L157.293 21.4974L161.756 26.0537L162.189 25.6114Z" fill="black" fill-opacity="0.05"/>
<path d="M201.359 25.6114L201.792 25.1692L196.896 20.1718C196.781 20.0557 196.624 19.9894 196.463 19.9894C196.301 19.9894 196.143 20.0557 196.029 20.1718L191.133 25.1692C190.894 25.414 190.894 25.8088 191.133 26.0537L196.029 31.051C196.143 31.1672 196.301 31.2334 196.463 31.2334C196.624 31.2334 196.781 31.1672 196.896 31.051L201.792 26.0537C201.906 25.9363 201.971 25.7763 201.971 25.6114C201.971 25.4465 201.906 25.2866 201.792 25.1692L201.359 25.6114L200.926 25.1692L196.463 29.7255L192.432 25.6114L196.463 21.4974L200.926 26.0537L201.359 25.6114Z" fill="black" fill-opacity="0.05"/>
<path d="M186.67 70.5868H186.058V89.9514H167.697V71.2114H186.67V70.5868V69.9621H167.085C166.924 69.9621 166.767 70.0283 166.652 70.1445C166.538 70.2619 166.473 70.4219 166.473 70.5868V90.576C166.473 90.7409 166.538 90.9009 166.652 91.0183C166.767 91.1345 166.924 91.2007 167.085 91.2007H186.67C186.832 91.2007 186.989 91.1345 187.104 91.0183C187.217 90.9009 187.282 90.7409 187.282 90.576V70.5868C187.282 70.4219 187.217 70.2619 187.104 70.1445C186.989 70.0283 186.832 69.9621 186.67 69.9621V70.5868ZM157.294 60.5922H156.682L156.681 100.571C156.681 100.736 156.746 100.895 156.859 101.013C156.974 101.129 157.131 101.195 157.293 101.195H196.463C196.624 101.195 196.781 101.129 196.896 101.013C197.01 100.895 197.075 100.736 197.075 100.571V80.5814V60.5922C197.075 60.4272 197.01 60.2673 196.896 60.1499L177.311 40.1606C177.196 40.0445 177.039 39.9782 176.878 39.9782C176.716 39.9782 176.558 40.0445 176.444 40.1606L156.861 60.1499C156.747 60.2673 156.682 60.4272 156.682 60.5922H157.294L157.726 61.0344L176.878 41.4862L195.851 60.8508V80.5814V99.946H157.905L157.906 60.5922H157.294Z" fill="black" fill-opacity="0.05"/>
<path d="M167.085 70.5872L166.652 71.0295L186.237 91.0188C186.412 91.1974 186.675 91.2499 186.904 91.1537C187.133 91.0575 187.282 90.8289 187.282 90.5765V70.5872C187.282 70.4223 187.217 70.2624 187.104 70.145C186.989 70.0288 186.832 69.9626 186.67 69.9626H167.085C166.838 69.9626 166.614 70.115 166.52 70.3486C166.424 70.581 166.477 70.8496 166.652 71.0295L167.085 70.5872V71.2119H186.058V89.0685L167.519 70.145L167.085 70.5872Z" fill="black" fill-opacity="0.05"/>
<path d="M167.085 70.5873H166.473V90.5765C166.473 90.7414 166.538 90.9013 166.652 91.0188C166.767 91.135 166.924 91.2012 167.085 91.2012H186.67C186.918 91.2012 187.142 91.0487 187.236 90.8151C187.33 90.5827 187.277 90.3129 187.104 90.1342L167.519 70.145C167.342 69.9663 167.079 69.9139 166.851 70.0101C166.623 70.1063 166.473 70.3349 166.473 70.5873H167.085L166.652 71.0295L185.192 89.9518H167.697V70.5873H167.085Z" fill="black" fill-opacity="0.05"/>
<path d="M167.085 280.474V281.099H186.67C186.832 281.099 186.989 281.032 187.104 280.916C187.217 280.799 187.282 280.639 187.282 280.474V270.479C187.282 270.314 187.217 270.155 187.104 270.037C186.989 269.921 186.832 269.855 186.67 269.855H167.085C166.924 269.855 166.767 269.921 166.652 270.037C166.538 270.155 166.473 270.314 166.473 270.479V280.474C166.473 280.639 166.538 280.799 166.652 280.916C166.767 281.032 166.924 281.099 167.085 281.099V280.474H167.697V271.104H186.058V279.849H167.085V280.474Z" fill="black" fill-opacity="0.05"/>
<path d="M167.085 300.463V301.088H186.67C186.832 301.088 186.989 301.022 187.104 300.905C187.217 300.788 187.282 300.628 187.282 300.463V290.469C187.282 290.304 187.217 290.144 187.104 290.026C186.989 289.91 186.832 289.844 186.67 289.844H167.085C166.924 289.844 166.767 289.91 166.652 290.026C166.538 290.144 166.473 290.304 166.473 290.469V300.463C166.473 300.628 166.538 300.788 166.652 300.905C166.767 301.022 166.924 301.088 167.085 301.088V300.463H167.697V291.093H186.058V299.839H167.085V300.463Z" fill="black" fill-opacity="0.05"/>
<path d="M274.803 100.571H274.191V140.549C274.191 140.714 274.256 140.874 274.37 140.991L293.955 160.981C294.13 161.159 294.393 161.212 294.622 161.116C294.851 161.019 295 160.791 295 160.538V120.56C295 120.395 294.935 120.235 294.821 120.118L275.236 100.128C275.06 99.9498 274.797 99.8973 274.569 99.9935C274.34 100.09 274.191 100.318 274.191 100.571H274.803L274.37 101.013L293.776 120.819V159.03L275.415 140.291V100.571H274.803Z" fill="black" fill-opacity="0.05"/>
</svg>
