<svg width="174" height="67" viewBox="0 0 174 67" fill="none" xmlns="http://www.w3.org/2000/svg">
<path d="M0.5 0H164C169.523 0 174 4.47715 174 10V66.0635L173.585 60.6148C173.529 59.8786 173.33 59.1604 173 58.5V58.5L172.588 57.4709C172.199 56.4964 171.658 55.5893 170.986 54.783L170.428 54.1142C169.813 53.3753 169.094 52.729 168.293 52.1955L166.5 51L165.146 50.323C164.058 49.7789 162.879 49.4379 161.669 49.3169L158.5 49H69.3333C67.1696 49 65.0643 48.2982 63.3333 47L61.5292 45.6469C60.5189 44.8892 59.6612 43.9469 59.0016 42.87L36.5615 6.233C35.861 5.08935 34.9376 4.09829 33.8463 3.31879L32.8745 2.62462C32.2932 2.2094 31.669 1.85767 31.0128 1.57544L29.241 0.813494C27.9931 0.276795 26.6488 0 25.2903 0H0.5Z" fill="white"/>
</svg>
