<svg width="80" height="80" viewBox="0 0 80 80" fill="none" xmlns="http://www.w3.org/2000/svg">
<path d="M40 18.3333C40 22.9357 36.269 26.6667 31.6667 26.6667C27.0643 26.6667 23.3333 22.9357 23.3333 18.3333M40 18.3333C40 13.731 36.269 10 31.6667 10C27.0643 10 23.3333 13.731 23.3333 18.3333M40 18.3333H70M23.3333 18.3333H10M63.3333 40C63.3333 44.6023 59.6023 48.3333 55 48.3333C50.3977 48.3333 46.6667 44.6023 46.6667 40M63.3333 40C63.3333 35.3977 59.6023 31.6667 55 31.6667C50.3977 31.6667 46.6667 35.3977 46.6667 40M63.3333 40H70M46.6667 40H10M33.3333 61.6667C33.3333 66.269 29.6024 70 25 70C20.3976 70 16.6667 66.269 16.6667 61.6667M33.3333 61.6667C33.3333 57.0643 29.6024 53.3333 25 53.3333C20.3976 53.3333 16.6667 57.0643 16.6667 61.6667M33.3333 61.6667H70M16.6667 61.6667H10" stroke="#3B90FF" stroke-width="5" stroke-linecap="round" stroke-linejoin="round"/>
</svg>
