<svg width="55" height="55" viewBox="0 0 55 55" fill="none" xmlns="http://www.w3.org/2000/svg">
<path fill-rule="evenodd" clip-rule="evenodd" d="M31.8835 47.1267L25.7499 45.5584L26.0885 42.8399L30.0852 43.8682L31.3299 37.3992L39.2125 38.648L42.1166 14.912L17.6383 9.91495L13.9045 39.704L18.4458 40.8727L18.8826 39.3709L24.6917 40.7302L23.1735 48.1787L20.0739 45.7372L16.8127 46.489L17.6836 43.4953L11 41.7866L15.5634 7L45.0207 12.8299L41.4399 41.41L31.8835 47.1267ZM38.7975 18.6602L38.3829 21.5752L20.5428 18.2434L20.9574 15.3289L38.7975 18.6602ZM19.7132 24.0737L20.1273 21.1588L32.5747 23.2409L32.1592 26.1559L19.7132 24.0737ZM26.4551 37.535L25.7467 39.38L18.1828 37.7469L18.5336 35.2022L17.2164 32.9743L18.9849 31.5761L19.3787 28.806L21.6581 29.1573L23.0377 27.306L25.0089 29.1428L27.3459 28.6381L27.5917 31.2317L29.5918 32.6407L28.4204 34.5047L28.6802 36.8846L26.4551 37.535Z" fill="#3B90FF"/>
</svg>
