<svg width="55" height="55" viewBox="0 0 55 55" fill="none" xmlns="http://www.w3.org/2000/svg">
<path d="M42.625 13.75V9.16712C42.625 8.66112 42.1396 8.25 41.5443 8.25H13.4544C12.8604 8.25 12.375 8.66112 12.375 9.16712V13.75C12.375 14.2574 12.8604 14.6671 13.4544 14.6671H15.0755V16.0366C15.0755 20.7364 18.2325 25.0195 23.1784 27.1081V27.8905C18.2339 29.9778 15.0755 34.2554 15.0755 38.9579V40.3356H13.4544C12.8604 40.3342 12.375 40.7454 12.375 41.2486V45.8343C12.375 46.3402 12.8604 46.75 13.4544 46.75H41.5443C42.1396 46.75 42.625 46.3402 42.625 45.8343V41.2486C42.625 40.7454 42.1396 40.3343 41.5443 40.3343H39.9231V38.9565C39.9231 34.254 36.7647 29.9736 31.8161 27.8864V27.1095C36.7647 25.0222 39.9231 20.7405 39.9231 16.0352V14.6658H41.5443C42.1396 14.6671 42.625 14.2574 42.625 13.75ZM39.2865 42.1657H40.4621V44.9157H14.5351V42.1657H16.1562H38.8438H39.2865ZM37.3725 18.6532C37.169 19.4425 36.5942 20.4861 36.5942 20.4861C35.3375 22.7618 33.1348 24.6359 30.3036 25.6877C29.9104 25.8335 29.6574 26.1635 29.6574 26.5279V28.4707C29.6574 28.8351 29.9104 29.1637 30.3036 29.3109C34.8356 30.9966 37.7657 34.782 37.7657 38.9579V40.337H36.8225H34.0519H20.9454H18.1981H17.2356V38.9592C17.2356 34.7834 20.1644 30.9994 24.6923 29.3123C25.0855 29.1679 25.3385 28.8392 25.3385 28.4749V26.5238C25.3385 26.1608 25.0855 25.8321 24.6923 25.685C21.8639 24.6318 19.6625 22.7604 18.4057 20.4847C17.9327 19.7147 17.6289 18.6519 17.6289 18.6519C17.3718 17.809 17.2356 16.9304 17.2356 16.0352V14.6809H37.7644V16.0352C37.7644 16.9304 37.6269 17.8104 37.3725 18.6532ZM40.4635 12.8329H38.8438C38.7805 12.8329 38.72 12.8384 38.6595 12.8466H16.3391C16.28 12.8384 16.2195 12.8329 16.1562 12.8329H14.5351V10.0829H40.4621L40.4635 12.8329Z" fill="#3B90FF"/>
</svg>
