<svg width="200" height="32" viewBox="0 0 200 32" fill="none" xmlns="http://www.w3.org/2000/svg">
<g clip-path="url(#clip0_69_10)">
<path d="M180.835 13.1874C180.209 12.5102 179.788 11.8551 179.6 10.9953C182.155 10.7939 184.478 10.7973 186.8 10.8007C186.024 11.6762 185.249 12.5517 184.384 13.5998C183.21 13.5848 182.125 13.3971 180.835 13.1874Z" fill="#515EA6"/>
<path d="M0.399994 26.582C2.69936 22.1797 5.00061 17.96 7.29751 13.738C9.2384 10.1703 11.1426 6.58193 13.1486 3.05132C13.4286 2.5586 14.1673 2.12947 14.7474 2.04654C15.8547 1.88823 17.0008 2.00058 18.134 2.00058C21.0306 7.43986 23.8964 12.8423 26.7834 18.2335C28.2123 20.9018 29.7977 23.4945 31.0752 26.2321C31.6217 27.4033 31.5634 28.8568 31.8011 30.3118C30.5593 30.3118 29.6479 30.3118 28.5661 30.3118C27.7017 28.5884 26.7822 26.7553 25.8018 24.8006C19.5671 24.8006 13.2487 24.7832 6.93089 24.8376C6.48302 24.8414 5.87766 25.2723 5.62333 25.6785C4.69962 27.154 3.89419 28.7035 2.94625 30.4003C2.32631 30.4003 1.53698 30.4003 0.573818 30.4003C0.399994 29.1881 0.399993 27.9759 0.399994 26.582ZM18.5843 11.5854C17.7161 9.86376 16.8478 8.14208 15.8987 6.25986C13.2847 11.1608 10.7865 15.8446 8.18563 20.7211C13.4646 20.7211 18.4243 20.7211 23.5232 20.7211C21.9262 17.7048 20.3631 14.7526 18.5843 11.5854Z" fill="white"/>
<path d="M200.4 31.0668C200.194 31.1168 199.989 31.0334 199.641 30.7875C199.364 30.591 199.334 30.4342 199.2 30.4002C199.2 30.4002 198.842 30.3207 198.8 30.2002C195.339 26.7883 192.225 23.7843 188.8 20.4002C188.794 20.3074 188.65 20.0028 188.8 20.0002C190.2 19.303 191.598 18.6096 192.849 17.915C195.278 22.0494 197.707 26.1838 200.268 30.3592C200.4 30.578 200.4 30.7557 200.4 31.0668Z" fill="#1F5EA5"/>
<path d="M154.97 6.45793C154.257 6.26676 153.699 6.02206 153.138 6.01791C148.808 5.9858 144.477 5.97676 140.146 6.00869C137.39 6.02901 134.814 8.66688 134.806 11.4613C134.787 17.71 134.8 23.9589 134.8 30.3035C133.307 30.3035 131.947 30.3035 130.804 30.3035C130.804 23.3183 130.53 16.3637 130.907 9.44447C131.13 5.33775 135.527 2.08435 139.424 2.01952C144.22 1.93974 149.019 1.97086 153.816 2.00917C158.222 2.04437 162.695 6.69582 162.414 10.681C162.325 11.9406 162.283 13.2247 162.421 14.4754C162.88 18.6386 158.64 23.4215 154.456 23.5637C149.713 23.725 144.961 23.6009 140.105 23.6009C140.105 22.6579 140.105 21.4305 140.105 20.0004C143.828 20.0004 147.541 20.0998 151.246 19.9624C153.398 19.8826 155.523 19.6249 157.059 17.5989C159.75 14.0485 158.913 8.7723 154.97 6.45793Z" fill="white"/>
<path d="M52.9304 5.99964C50.0196 6.14208 48.3375 7.27854 48.0569 9.95895C47.6664 13.6886 47.2794 17.5256 47.7418 21.2098C48.2975 25.6368 50.3285 26.1878 54.2534 26.3407C60.1069 26.5688 65.976 26.3999 71.8384 26.3999C72.4921 26.3999 73.1457 26.3999 73.8989 26.3999C73.8989 27.7495 73.8989 28.9764 73.8989 30.3996C68.1654 30.3996 62.4574 30.4064 56.7495 30.3952C55.2227 30.3922 53.6705 30.5013 52.1739 30.2719C46.7372 29.4388 43.595 26.0946 43.3056 20.7232C43.0849 16.6256 43.4803 12.4454 44.0651 8.36848C44.5954 4.6706 49.2353 1.84168 52.6916 1.93999C59.7315 2.14021 66.781 1.9999 73.9127 1.9999C73.9127 3.37733 73.9127 4.60399 73.9127 5.99964C66.9347 5.99964 60.0245 5.99964 52.9304 5.99964Z" fill="white"/>
<path d="M98.3722 6.00034C94.3204 6.00034 90.4657 6.00034 86.5061 6.00034C86.5061 4.65999 86.5061 3.43272 86.5061 2.10156C97.6153 2.10156 108.71 2.10156 119.902 2.10156C119.902 3.35775 119.902 4.58515 119.902 5.98247C115.169 5.98247 110.472 5.98247 105.442 5.98247C105.442 14.1558 105.442 22.1623 105.442 30.2826C103.884 30.2826 102.655 30.2826 101.257 30.2826C101.257 22.2768 101.257 14.2472 101.257 6.00034C100.253 6.00034 99.4111 6.00034 98.3722 6.00034Z" fill="white"/>
<path d="M188.82 20.376C192.238 23.6673 195.657 26.9586 199.085 30.3895C194.295 28.3107 189.474 26.1397 184.715 23.8399C183.578 23.2905 182.715 23.2637 181.582 23.8079C177.173 25.9253 172.71 27.9325 168.137 29.8442C168.461 29.1564 168.882 28.5711 169.378 28.0595C171.849 25.5138 174.34 22.9875 176.952 20.4348C177.251 20.3952 177.423 20.3752 177.719 20.4227C178.964 20.9928 180.082 21.4952 181.283 22.1091C182.128 22.2915 182.89 22.3623 183.789 22.4257C184.491 22.1491 185.054 21.8801 185.76 21.5949C186.875 21.1778 187.847 20.7769 188.82 20.376Z" fill="#418BD4"/>
<path d="M176.8 20.6005C174.316 23.1336 171.849 25.5139 169.378 28.0596C168.882 28.5711 168.675 29.1122 168.2 29.8005C168.181 29.9375 167.8 30.0005 167.707 30.0652C167.424 30.1512 167.309 30.2336 167.194 30.316C167.163 29.9613 166.979 29.5216 167.123 29.2649C169.134 25.6713 171.19 22.1027 173.483 18.457C174.762 19.0755 175.769 19.9111 176.8 20.6005Z" fill="#1E5DA4"/>
<path d="M176.6 12.8002C176.791 12.3141 177.183 11.6894 177.515 11.2792C178.997 11.9672 180.338 12.5793 181.811 13.2062C182.644 13.347 183.344 13.4729 184.198 13.597C185.993 12.9262 187.358 11.8692 189 11.2002C189.2 11.4002 189.541 11.963 189.564 12.3445C188.829 12.9726 188.224 13.4408 187.572 13.8329C186.549 14.4493 185.494 15.0143 184.349 15.558C184.048 15.4106 183.768 15.3539 183.454 15.2002C182.75 15.3167 182.366 15.6948 181.654 15.8002C179.995 14.8002 178.136 13.7396 176.6 12.8002Z" fill="#3D77B3"/>
<path d="M186.523 6.99414C186.997 7.76434 187.593 8.85115 188 9.8002C187.731 10.0931 187.571 10.0917 187.2 10.2002C184.471 10.1987 181.856 10.2412 179.2 10.2002C178.921 10.0413 178.382 10.1141 178.2 10.0002C178.405 9.53682 178.861 8.64731 179.339 8.09137C180.986 7.99925 182.376 8.1239 183.729 7.9579C184.685 7.84065 185.593 7.32946 186.523 6.99414Z" fill="#57499D"/>
<path d="M186.8 7.39973C186.6 7.79973 184.685 7.8402 183.729 7.95745C182.376 8.12345 180.758 8.40077 179.2 8.39973C179.447 7.62744 180.106 6.45378 180.758 5.73464C182.558 5.71131 184.136 5.63544 185.715 5.55957C185.962 5.96083 186.52 6.8833 186.8 7.39973Z" fill="#5B3E98"/>
<path d="M176.625 12.7295C178.282 13.6008 179.991 14.49 181.6 15.5999C181.439 16.0961 181.137 16.431 180.8 16.7999C180.5 16.9485 180.198 17.0947 179.936 17.0758C178.405 16.2128 176.938 15.4739 175.47 14.735C175.815 14.0892 176.16 13.4434 176.625 12.7295Z" fill="#346CA7"/>
<path d="M176.8 20.5998C175.641 19.9299 174.591 19.3151 173.4 18.5998C173.8 17.9998 174.143 16.8478 174.759 16.1006C176.274 16.8643 177.593 17.5137 178.8 18.3998C178.6 19.1998 178.165 19.8271 177.8 20.3998C177.629 20.4198 177.099 20.5602 176.8 20.5998Z" fill="#245892"/>
<path d="M190.524 13.9395C190.818 14.4187 191.112 14.898 191.31 15.5137C189.873 16.5698 188.533 17.4896 187.079 18.354C186.512 17.9308 186.058 17.563 185.603 17.0967C185.602 16.9984 185.599 16.8014 185.662 16.6783C187.324 15.6833 188.924 14.8114 190.524 13.9395Z" fill="#3066A1"/>
<path d="M190.6 14.0002C189.04 14.9966 187.375 16.0575 185.6 17.0002C185.1 16.7058 184.525 15.9654 184.2 15.6002C185.241 15.0134 186.495 14.4493 187.518 13.8329C188.169 13.4408 188.659 12.7103 189.4 12.2002C189.786 12.5588 190.289 13.4411 190.6 14.0002Z" fill="#376FAB"/>
<path d="M178.8 18.5996C177.536 17.8316 176.193 17.0277 174.8 16.1996C174.2 16.9996 175.126 15.235 175.4 14.7996C175.6 14.3996 179.121 15.8243 180.6 16.7996C180.248 17.3613 179.165 18.2743 178.8 18.5996Z" fill="#2C619B"/>
<path d="M187.208 10.004C187.409 9.88995 187.61 9.77592 187.917 9.61426C188.397 10.1554 188.772 10.7441 189.185 11.4603C187.581 12.2567 186.138 13.0447 184.4 13.5997C184.805 12.898 185.107 12.1912 185.722 11.5473C186.293 10.9954 186.75 10.4997 187.208 10.004Z" fill="#4580BD"/>
<path d="M192.941 18.095C191.737 18.9201 190.246 19.4479 188.741 20.095C188.29 19.8137 188.074 19.6528 187.941 19.295C188.68 18.7661 189.475 18.1089 190.079 17.6152C190.681 17.1232 191.152 16.4726 191.681 15.8916C192.02 16.444 192.556 17.412 192.941 18.095Z" fill="#21558F"/>
<path d="M186 5.99978C184.458 6.18759 182.288 6.05086 180.6 5.99978C180.8 5.59978 181.2 4.99978 181.452 4.42621C182.839 4.3523 183.941 4.34167 185.043 4.33105C185.242 4.66595 185.764 5.55295 186 5.99978Z" fill="#5D3293"/>
<path d="M178.364 9.66699C178.633 9.6873 178.814 9.80116 179.147 10.076C179.791 10.6951 180.285 11.1533 180.794 11.7415C181.081 12.3113 181.353 12.751 181.625 13.1907C180.284 12.5787 178.571 12.5614 177.2 11.7996C177.414 11.2183 178.031 10.192 178.364 9.66699Z" fill="#447EBC"/>
<path d="M185.2 4.59998C184.141 4.75236 182.71 4.61294 181.4 4.59998C181.77 3.52694 182.476 2.21703 183.191 0.916016C183.893 2.16039 184.625 3.51455 185.2 4.59998Z" fill="#60288E"/>
<path d="M191.8 16.0004C191.291 16.6603 190.74 17.2286 190.138 17.7206C189.534 18.2143 188.846 18.9195 188 19.4004C187.633 19.244 187.198 18.6328 187 18.4004C188.341 17.4806 189.727 16.3404 191.2 15.4004C191.436 15.4277 191.736 15.816 191.8 16.0004Z" fill="#275C97"/>
<path d="M187.079 18.3538C187.39 18.6416 187.588 18.874 187.893 19.1544C188.195 19.4361 188.391 19.6699 188.693 19.9537C188.798 20.0039 188.794 20.3072 188.8 20.4C187.834 20.8936 186.635 21.4958 185.4 21.8C185.213 20.3067 185.525 18.3967 185.6 17C186.054 17.3678 186.512 17.9305 187.079 18.3538Z" fill="#496ABB"/>
<path d="M180.799 16.7973C181.032 16.4716 181.266 16.146 181.551 15.7105C182.189 15.4346 182.762 15.163 183.4 15.1996C183.512 17.7104 183.738 20.0915 183.8 22.3996C183.806 22.6262 181 22.3996 181.2 21.9996C180.983 20.0936 180.932 18.4077 180.799 16.7973Z" fill="#3C5FA9"/>
<path d="M183.789 22.4256C183.589 20.125 183.396 17.6617 183.4 15.2004C183.664 15.1515 183.994 15.4108 184.295 15.5582C184.724 15.9665 185.049 16.3316 185.487 16.7492C185.599 16.8016 185.602 16.9985 185.603 17.0969C185.528 18.5919 185.355 20.2908 185.4 21.8004C184.957 22.1823 184.491 22.1491 183.789 22.4256Z" fill="#4264B1"/>
<path d="M180.8 16.7998C181.037 18.3669 181.066 20.2052 181.2 21.9998C181.4 22.3998 178.964 20.9921 177.72 20.4221C177.959 19.7818 178.323 19.2092 178.745 18.5184C179.167 18.075 179.531 17.7497 179.948 17.3121C180.198 17.0946 180.4 16.7998 180.8 16.7998Z" fill="#35599F"/>
<path d="M185.722 11.5477C184.109 11.6017 182.609 11.5994 180.945 11.6045C180.285 11.1538 179.747 10.7742 179.2 10.2C181.706 10.08 184.471 9.99856 187.2 10C186.912 10.5012 186.293 10.9957 185.722 11.5477Z" fill="#5453A1"/>
</g>
<defs>
<clipPath id="clip0_69_10">
<rect width="200" height="32" fill="white"/>
</clipPath>
</defs>
</svg>
