<svg width="45" height="45" viewBox="0 0 45 45" fill="none" xmlns="http://www.w3.org/2000/svg">
<path fill-rule="evenodd" clip-rule="evenodd" d="M43.3344 8.4276C43.9305 5.52178 41.0764 3.10699 38.3094 4.17606L4.39219 17.2805C1.30222 18.4743 1.16454 22.7952 4.17222 24.1832L11.5584 27.5924L15.0722 39.8903C15.2547 40.5291 15.7616 41.0237 16.4047 41.1904C17.0478 41.3569 17.7311 41.1709 18.2009 40.7011L23.6134 35.2885L31.1953 40.975C33.3962 42.6256 36.5661 41.4233 37.1188 38.7284L43.3344 8.4276ZM5.74369 20.7784L39.6609 7.67406L33.4453 37.975L24.5625 31.3127C23.8161 30.7529 22.7715 30.8271 22.1117 31.4869L19.7934 33.8052L20.49 29.9744L34.1383 16.3261C34.8026 15.6619 34.8728 14.6087 34.3026 13.8622C33.7324 13.1157 32.6979 12.9063 31.8823 13.3723L13.0336 24.1429L5.74369 20.7784ZM15.3318 27.1487L16.4687 31.1282L16.9053 28.7273C16.9735 28.3521 17.1545 28.0066 17.4242 27.7369L21.5865 23.5748L15.3318 27.1487Z" fill="#3B90FF"/>
</svg>
