<svg width="45" height="45" viewBox="0 0 45 45" fill="none" xmlns="http://www.w3.org/2000/svg">
<path d="M43.98 10.8452C43.4737 12.437 42.7912 13.8227 41.9362 15.0808L41.9719 15.0245C41.1319 16.4245 40.1287 18.042 38.9625 19.877C37.9625 21.3258 37.4331 22.0758 37.3744 22.127C37.1156 22.4514 36.9356 22.8489 36.8737 23.2858L36.8719 23.2989C36.9225 23.6964 37.1062 24.0433 37.3744 24.302L38.1244 25.1383C42.1369 29.262 44.3937 32.1045 44.895 33.6658C44.9606 33.8383 44.9981 34.037 44.9981 34.2452C44.9981 34.6089 44.8819 34.9445 44.685 35.2202L44.6887 35.2145C44.3587 35.5539 43.8975 35.7639 43.3875 35.7639C43.3312 35.7639 43.2731 35.762 43.2187 35.7564H43.2262H38.2931C38.2912 35.7564 38.2875 35.7564 38.2837 35.7564C37.6519 35.7564 37.0706 35.5352 36.615 35.1677L36.6206 35.1714C35.9569 34.6258 35.3662 34.0352 34.8375 33.3939L34.8206 33.3714C33.9569 32.3952 33.1906 31.5733 32.5219 30.9058C30.2944 28.7883 28.6506 27.7295 27.5906 27.7295C27.5512 27.7258 27.5062 27.7239 27.4594 27.7239C27.15 27.7239 26.8612 27.8195 26.6231 27.9827L26.6287 27.9789C26.4337 28.2227 26.3156 28.5377 26.3156 28.877C26.3156 28.9445 26.3194 29.0083 26.3287 29.0739V29.0664C26.2781 29.6552 26.2481 30.3395 26.2481 31.0314C26.2481 31.2545 26.2519 31.4758 26.2575 31.697V31.6652V33.8383C26.2762 33.9264 26.2875 34.0277 26.2875 34.1308C26.2875 34.5845 26.0812 34.9895 25.7587 35.2577L25.7569 35.2595C25.0312 35.5914 24.1837 35.7864 23.2894 35.7864C23.0981 35.7864 22.9106 35.777 22.725 35.7602L22.7494 35.762C19.7981 35.7058 17.0606 34.8414 14.7337 33.3845L14.7994 33.422C11.9662 31.7008 9.61874 29.4602 7.82999 26.8127L7.77937 26.7339C6.08062 24.4802 4.49624 21.9339 3.14624 19.2489L3.01499 18.9602C2.22562 17.4564 1.40812 15.6077 0.703115 13.7064L0.590615 13.3595C0.30374 12.5045 0.0956152 11.5108 0.00936523 10.4814L0.00561523 10.4345C0.00561523 9.48703 0.563115 9.01328 1.67812 9.01328H6.60937C6.65437 9.00953 6.70687 9.00766 6.76124 9.00766C7.22624 9.00766 7.65562 9.16703 7.99499 9.43516L7.99124 9.43141C8.36624 9.84203 8.64374 10.3464 8.78062 10.9089L8.78624 10.9314C9.69374 13.4945 10.6556 15.647 11.7619 17.7095L11.6362 17.4527C12.54 19.2714 13.5394 20.837 14.6794 22.2827L14.6362 22.2245C15.6362 23.452 16.4162 24.0658 16.9762 24.0658C16.9931 24.0677 17.0137 24.0677 17.0362 24.0677C17.3137 24.0677 17.5556 23.9177 17.6869 23.6927L17.6887 23.6889C17.8275 23.3327 17.9081 22.9183 17.9081 22.487C17.9081 22.3952 17.9044 22.3033 17.8969 22.2133V22.2245V14.9514C17.8575 14.0945 17.6475 13.2939 17.2969 12.5758L17.3119 12.6114C17.0794 12.1164 16.8 11.6889 16.4681 11.3083L16.4737 11.3158C16.1662 11.0083 15.9562 10.6052 15.8906 10.1552L15.8887 10.1439C15.8887 9.82516 16.035 9.53828 16.2637 9.35078L16.2656 9.34891C16.4925 9.14078 16.7962 9.01516 17.1281 9.01516H17.1431H24.9169C24.9581 9.00953 25.005 9.00766 25.0537 9.00766C25.4194 9.00766 25.7475 9.17266 25.965 9.43141L25.9669 9.43328C26.16 9.78578 26.2744 10.2077 26.2744 10.6539C26.2744 10.7252 26.2706 10.7945 26.265 10.8639V10.8545V20.5539C26.2612 20.5989 26.2594 20.6514 26.2594 20.7039C26.2594 21.0489 26.355 21.3733 26.52 21.6489L26.5162 21.6414C26.6531 21.8439 26.8819 21.9752 27.1406 21.9752C27.4706 21.9527 27.7725 21.8439 28.0256 21.6714L28.02 21.6752C28.53 21.3245 28.9687 20.9252 29.3494 20.4733L29.3569 20.4639C30.495 19.1777 31.545 17.7564 32.46 16.2452L32.5331 16.1139C33.1781 15.0452 33.8756 13.7289 34.5075 12.377L34.6237 12.1014L35.46 10.4289C35.7506 9.59266 36.5306 9.00391 37.4475 9.00391C37.4831 9.00391 37.5187 9.00391 37.5544 9.00578H37.5487H42.4819C43.8144 9.00578 44.3144 9.61891 43.9819 10.8452H43.98Z" fill="#3B90FF"/>
</svg>
