<svg width="45" height="45" viewBox="0 0 45 45" fill="none" xmlns="http://www.w3.org/2000/svg">
<path fill-rule="evenodd" clip-rule="evenodd" d="M6.56254 22.5C6.56254 13.698 13.698 6.5625 22.5 6.5625C31.302 6.5625 38.4375 13.698 38.4375 22.5C38.4375 31.302 31.302 38.4375 22.5 38.4375C19.3646 38.4375 16.4461 37.5341 13.9837 35.9739C13.5254 35.6837 12.9639 35.6061 12.4441 35.7611L7.04567 37.3723L9.07825 32.6162C9.31849 32.0541 9.26961 31.4102 8.94726 30.8908C7.43569 28.455 6.56254 25.5823 6.56254 22.5ZM22.5 2.8125C11.6269 2.8125 2.81254 11.6269 2.81254 22.5C2.81254 25.9464 3.69968 29.1906 5.25872 32.0113L2.02588 39.5756C1.74009 40.2444 1.86677 41.0181 2.35092 41.5607C2.83506 42.1035 3.58935 42.3172 4.28623 42.1091L12.7226 39.5916C15.6046 41.2434 18.9444 42.1875 22.5 42.1875C33.3731 42.1875 42.1875 33.3731 42.1875 22.5C42.1875 11.6269 33.3731 2.8125 22.5 2.8125ZM26.7984 26.592L24.3343 28.3277C23.1803 27.6703 21.9043 26.7527 20.6244 25.4728C19.2939 24.1423 18.3075 22.7687 17.5802 21.5087L19.1462 20.1795C19.8182 19.6091 20.0021 18.6475 19.5881 17.8693L17.5928 14.1193C17.3241 13.6143 16.8397 13.2596 16.2772 13.156C15.7146 13.0524 15.1356 13.2112 14.7046 13.5874L14.1131 14.1037C12.6904 15.3453 11.8491 17.3856 12.5464 19.4514C13.2693 21.5931 14.8122 24.9637 17.9729 28.1244C21.3733 31.5249 24.8274 32.8641 26.8474 33.3842C28.4749 33.8031 30.015 33.2415 31.1003 32.3572L32.2093 31.4535C32.6837 31.0671 32.9396 30.4732 32.895 29.8629C32.8502 29.2526 32.5104 28.7025 31.9847 28.3892L28.8379 26.5142C28.2023 26.1356 27.4035 26.166 26.7984 26.592Z" fill="#3B90FF"/>
</svg>
