<svg width="660" height="682" viewBox="0 0 660 682" fill="none" xmlns="http://www.w3.org/2000/svg">
<path d="M397.254 311.732C421.578 372.142 442.779 434.264 457.538 497.968C463.195 522.384 467.964 547.126 470.494 572.118C472.265 589.603 473.372 607.828 470.375 625.244C468.72 634.856 465.429 647.147 456.085 651.693C447.218 656.006 436.97 651.061 429.399 646.125C416.178 637.507 405.111 625.305 394.997 613.119C380.426 595.56 367.514 576.538 355.396 557.104C323.388 505.775 296.652 450.869 272.952 394.975C246.77 333.228 224.083 269.572 207.403 204.34C200.881 178.834 195.265 153.013 191.569 126.894C188.837 107.583 186.912 87.7938 188.277 68.2667C189.076 56.8588 190.767 42.5308 198.988 33.97C205.751 26.93 215.285 28.0229 223.38 31.8118C236.07 37.7509 246.69 48.3761 256.142 58.7108C270.473 74.3828 283.019 91.7852 294.768 109.581C326.898 158.251 353.492 210.913 377.229 264.422C384.17 280.07 390.835 295.846 397.254 311.732C397.838 313.177 400.147 312.542 399.553 311.075C375.327 251.121 347.794 192.273 314.761 136.95C302.185 115.89 288.773 95.2765 273.766 75.9778C263.052 62.1982 251.448 48.639 237.715 37.991C229.699 31.7752 219.411 25.1769 208.924 26.3588C199.555 27.4172 193.679 35.2585 190.49 43.8283C185.21 58.02 185.103 74.3215 185.649 89.2959C186.495 112.503 190.056 135.608 194.503 158.338C207.034 222.393 227.238 284.93 250.474 345.599C274.379 408.014 301.971 469.207 334.812 527.147C347.699 549.886 361.433 572.179 376.69 593.299C388.005 608.962 400.144 624.348 414.349 637.318C427.711 649.519 452.71 667.005 466.134 645.261C473.057 634.047 474.122 619.178 474.443 606.248C474.967 585.097 472.382 563.862 468.976 543.048C458.814 480.954 440.163 420.23 418.825 361.383C412.699 344.492 406.259 327.726 399.553 311.075C398.971 309.629 396.662 310.263 397.254 311.732Z" fill="white" fill-opacity="0.1"/>
<path d="M118.568 432.666C93.0814 369.175 79.8288 299.582 85.2806 230.77C89.7926 173.803 107.738 115.402 145.864 72.8203C179.607 35.1339 227.291 14.8381 276.844 16.9202C329.12 19.117 378.541 43.8835 419.002 77.0943C466.902 116.412 504.446 168.536 530.971 225.327C560.315 288.156 577.156 358.174 575.834 428.162C574.735 486.367 560.777 546.713 526.503 593.862C496.292 635.418 450.584 662.165 400.201 664.981C349.379 667.822 299.806 647.761 258.475 618.304C208.691 582.823 168.922 533.199 139.937 478.592C132.028 463.69 124.921 448.344 118.568 432.666C117.983 431.221 115.673 431.855 116.267 433.322C140.803 493.868 176.897 550.063 224.49 593.789C263.855 629.955 312.139 658.434 364.877 665.876C413.959 672.801 463.779 658.965 501.485 625.268C543.296 587.903 565.8 532.283 574.172 476.745C584.38 409.041 575.199 338.845 553.316 274.515C531.708 210.99 497.434 151.381 451.317 103.658C413.072 64.0816 365.468 31.5872 312.157 19.2978C264.139 8.22888 213.324 15.9933 172.596 45.4034C128.24 77.4333 101.802 129.411 89.9348 183.035C75.478 248.365 80.8048 317.633 98.6716 381.648C103.573 399.208 109.492 416.445 116.267 433.322C116.849 434.768 119.157 434.134 118.568 432.666Z" fill="white" fill-opacity="0.1"/>
<path d="M297.665 261.671C356.529 236.252 417.367 214.608 479.8 200.767C503.714 195.465 527.965 191.261 552.399 189.718C569.673 188.628 587.687 188.465 604.568 192.96C614.522 195.61 626.013 200.521 630.266 211.066C634.273 221.001 630.289 232.226 625.561 241.068C617.763 255.655 606.267 268.043 594.569 279.327C578.087 295.226 559.986 309.288 541.389 322.404C492.535 356.86 439.634 385.235 385.639 409.957C325.967 437.277 264.112 460.414 200.669 476.39C175.399 482.752 149.774 488.021 123.897 490.867C104.859 492.96 85.2243 494.117 66.1982 491.254C54.7164 489.526 41.0744 486.312 33.1752 476.712C26.65 468.782 27.3361 458.315 30.7031 449.103C35.8277 435.085 45.9089 423.028 55.8336 412.402C70.4841 396.717 87.0399 382.955 104.078 370.166C150.079 335.637 200.547 307.399 251.963 282.581C267.06 275.293 282.302 268.332 297.665 261.671C300.456 260.461 299.23 255.678 296.397 256.907C238.39 282.058 181.594 311.154 128.796 346.663C108.481 360.326 88.6743 374.99 70.3686 391.449C57.0368 403.435 44.076 416.519 34.2372 431.801C27.9772 441.523 22.1915 453.45 23.5272 465.497C24.7676 476.683 32.5389 484.746 42.0381 489.38C55.9892 496.188 72.2387 497.549 87.4464 497.771C110.111 498.103 132.812 495.224 155.117 491.279C218.141 480.131 279.723 459.6 339.111 435.391C399.592 410.737 458.749 381.665 514.2 346.448C535.881 332.68 557.029 317.908 576.927 301.483C592.22 288.856 607.122 275.189 619.323 259.278C632.533 242.049 646.974 213.989 625.249 197.13C614.172 188.533 599.248 186.067 585.814 184.89C564.943 183.063 543.798 184.937 523.101 187.839C462.507 196.332 403.125 214.891 345.889 236.747C329.254 243.098 312.761 249.84 296.397 256.907C293.604 258.112 294.83 262.895 297.665 261.671Z" fill="white" fill-opacity="0.1"/>
<path d="M630.155 210.78C655.872 274.901 662.158 346.205 647.306 413.979C632.829 480.043 599.015 540.924 551.039 586.988C500.889 635.135 435.906 666.276 367.999 674.685C303.082 682.725 236.398 670.058 178.449 638.706C119.552 606.842 71.0156 556.41 40.6184 495.194C9.78034 433.091 -1.83602 361.487 8.24136 292.397C17.9934 225.542 47.3325 162.332 91.7743 112.791C138.164 61.0801 200.164 25.4067 266.957 11.4967C331.71 -1.9884 400.024 5.61194 460.579 32.9241C520.882 60.1216 572.541 106.147 607.05 164.188C615.899 179.07 623.617 194.667 630.155 210.78C631.327 213.668 635.944 212.4 634.756 209.467C608.37 144.43 563.143 88.9031 505.24 51.6279C449.033 15.4436 382.493 -2.69104 316.367 0.323975C247.129 3.47931 179.501 29.6946 125.139 74.1868C73.024 116.838 34.1943 175.862 14.5834 241.563C-5.39488 308.495 -4.8768 381.272 16.3246 447.821C37.6778 514.847 78.929 573.989 133.875 615.763C187.478 656.517 252.891 679.778 319.347 681.86C388.467 684.023 457.699 663.049 514.96 622.92C570.258 584.165 613.249 528.173 637.535 463.782C661.913 399.145 666.657 327.255 650.757 259.827C646.703 242.632 641.31 225.81 634.756 209.467C633.594 206.573 628.977 207.842 630.155 210.78Z" fill="white" fill-opacity="0.1"/>
</svg>
