<svg width="80" height="80" viewBox="0 0 80 80" fill="none" xmlns="http://www.w3.org/2000/svg">
<path d="M16.5961 21.0494C9.97646 23.6972 6.66666 25.0212 6.66666 26.6663C6.66666 28.3115 9.97646 29.6354 16.5961 32.2833L25.9577 36.028C32.5773 38.6757 35.887 39.9997 40 39.9997C44.113 39.9997 47.4227 38.6757 54.0423 36.028L63.404 32.2833C70.0237 29.6354 73.3333 28.3115 73.3333 26.6663C73.3333 25.0212 70.0237 23.6972 63.404 21.0494L54.0423 17.3048C47.4227 14.6569 44.113 13.333 40 13.333C36.8203 13.333 34.1203 14.1243 30 15.707" stroke="#3B90FF" stroke-width="5" stroke-linecap="round"/>
<path d="M19.2204 33.333L16.5961 34.3827C9.97646 37.0307 6.66666 38.3547 6.66666 39.9997C6.66666 41.6447 9.97646 42.9687 16.5961 45.6167L25.9577 49.3613C32.5773 52.009 35.887 53.333 40 53.333C44.113 53.333 47.4227 52.009 54.0423 49.3613L63.404 45.6167C70.0237 42.9687 73.3333 41.6447 73.3333 39.9997C73.3333 38.3547 70.0237 37.0307 63.404 34.3827L60.7797 33.333" stroke="#3B90FF" stroke-width="5"/>
<path d="M63.404 58.9507C70.0237 56.3027 73.3333 54.9787 73.3333 53.3337C73.3333 51.6887 70.0237 50.3647 63.404 47.7167L60.7797 46.667M19.2204 46.667L16.5961 47.7167C9.97646 50.3647 6.66666 51.6887 6.66666 53.3337C6.66666 54.9787 9.97646 56.3027 16.5961 58.9507L25.9577 62.6953C32.5773 65.343 35.887 66.667 40 66.667C43.1797 66.667 45.8797 65.8757 50 64.293" stroke="#3B90FF" stroke-width="5" stroke-linecap="round"/>
</svg>
