<svg width="80" height="80" viewBox="0 0 80 80" fill="none" xmlns="http://www.w3.org/2000/svg">
<path d="M73.3333 3.33301H60C59.1159 3.33301 58.2681 3.6842 57.643 4.30932C57.0178 4.93444 56.6666 5.78229 56.6666 6.66634V29.9997H50V23.333C50.0002 22.7648 49.8552 22.2059 49.5787 21.7094C49.3022 21.213 48.9034 20.7955 48.4201 20.4966C47.9368 20.1977 47.3851 20.0272 46.8175 20.0015C46.2498 19.9758 45.685 20.0957 45.1767 20.3497L30 27.9397V23.333C30.0002 22.7648 29.8552 22.2059 29.5787 21.7094C29.3022 21.213 28.9034 20.7955 28.4201 20.4966C27.9368 20.1977 27.3851 20.0272 26.8175 20.0015C26.2498 19.9758 25.685 20.0957 25.1766 20.3497L5.17665 30.3497C4.62254 30.6266 4.15654 31.0524 3.83094 31.5793C3.50535 32.1063 3.33302 32.7136 3.33331 33.333V73.333C3.33331 74.2171 3.6845 75.0649 4.30962 75.69C4.93475 76.3152 5.78259 76.6663 6.66665 76.6663H73.3333C74.2174 76.6663 75.0652 76.3152 75.6903 75.69C76.3155 75.0649 76.6666 74.2171 76.6666 73.333V6.66634C76.6666 5.78229 76.3155 4.93444 75.6903 4.30932C75.0652 3.6842 74.2174 3.33301 73.3333 3.33301ZM70 9.99967V16.6663H63.3333V9.99967H70ZM9.99998 69.9997V35.393L23.3333 28.7263V33.333C23.333 33.9013 23.4781 34.4601 23.7546 34.9566C24.0311 35.453 24.4299 35.8705 24.9132 36.1694C25.3965 36.4684 25.9482 36.6388 26.5158 36.6645C27.0835 36.6902 27.6483 36.5704 28.1566 36.3163L43.3333 28.7263V33.333C43.3333 34.2171 43.6845 35.0649 44.3096 35.69C44.9347 36.3152 45.7826 36.6663 46.6666 36.6663H60C60.884 36.6663 61.7319 36.3152 62.357 35.69C62.9821 35.0649 63.3333 34.2171 63.3333 33.333V23.333H70V69.9997H9.99998ZM16.6666 43.333H26.6666V49.9997H16.6666V43.333ZM33.3333 43.333H46.6666V49.9997H33.3333V43.333ZM53.3333 43.333H63.3333V49.9997H53.3333V43.333ZM16.6666 56.6663H26.6666V63.333H16.6666V56.6663ZM33.3333 56.6663H46.6666V63.333H33.3333V56.6663ZM53.3333 56.6663H63.3333V63.333H53.3333V56.6663Z" fill="#3B90FF"/>
</svg>
